<svg xmlns="http://www.w3.org/2000/svg" xmlns:xlink="http://www.w3.org/1999/xlink" width="200" zoomAndPan="magnify" viewBox="0 0 150 149.999998" height="200" preserveAspectRatio="xMidYMid meet" version="1.0"><defs><g/><clipPath id="180cbe39ef"><path d="M 4.789062 4.789062 L 145.039062 4.789062 L 145.039062 145.039062 L 4.789062 145.039062 Z M 4.789062 4.789062 " clip-rule="nonzero"/></clipPath><clipPath id="64ed75358e"><path d="M 74.996094 4.789062 C 36.21875 4.789062 4.789062 36.21875 4.789062 74.996094 C 4.789062 113.769531 36.21875 145.203125 74.996094 145.203125 C 113.769531 145.203125 145.203125 113.769531 145.203125 74.996094 C 145.203125 36.21875 113.769531 4.789062 74.996094 4.789062 Z M 74.996094 4.789062 " clip-rule="nonzero"/></clipPath><clipPath id="80c9e2cbcb"><path d="M 7.375 7.375 L 142.375 7.375 L 142.375 142.375 L 7.375 142.375 Z M 7.375 7.375 " clip-rule="nonzero"/></clipPath><clipPath id="47da7a70eb"><path d="M 74.839844 7.375 C 37.578125 7.375 7.375 37.652344 7.375 74.996094 C 7.375 112.34375 37.578125 142.621094 74.839844 142.621094 C 112.097656 142.621094 142.304688 112.34375 142.304688 74.996094 C 142.304688 37.652344 112.097656 7.375 74.839844 7.375 Z M 74.839844 7.375 " clip-rule="nonzero"/></clipPath><clipPath id="26dd073261"><path d="M 28.859375 30.292969 L 121.109375 30.292969 L 121.109375 122.542969 L 28.859375 122.542969 Z M 28.859375 30.292969 " clip-rule="nonzero"/></clipPath></defs><rect x="-15" width="180" fill="#ffffff" y="-15" height="179.999997" fill-opacity="1"/><rect x="-15" width="180" fill="#ffffff" y="-15" height="179.999997" fill-opacity="1"/><g clip-path="url(#180cbe39ef)"><g clip-path="url(#64ed75358e)"><path stroke-linecap="butt" transform="matrix(0.75, 0, 0, 0.75, 4.787235, 4.787236)" fill="none" stroke-linejoin="miter" d="M 93.611817 0.00243517 C 41.908689 0.00243517 0.00243617 41.908688 0.00243617 93.611816 C 0.00243617 145.309735 41.908689 187.221196 93.611817 187.221196 C 145.309736 187.221196 187.221197 145.309735 187.221197 93.611816 C 187.221197 41.908688 145.309736 0.00243517 93.611817 0.00243517 Z M 93.611817 0.00243517 " stroke="#060606" stroke-width="2" stroke-opacity="1" stroke-miterlimit="4"/></g></g><g clip-path="url(#80c9e2cbcb)"><g clip-path="url(#47da7a70eb)"><path stroke-linecap="butt" transform="matrix(0.75, 0, 0, 0.75, 7.374666, 7.37453)" fill="none" stroke-linejoin="miter" d="M 89.953576 0.00062724 C 40.271282 0.00062724 0.00044584 40.370421 0.00044584 90.162091 C 0.00044584 139.958969 40.271282 180.328763 89.953576 180.328763 C 139.630662 180.328763 179.906706 139.958969 179.906706 90.162091 C 179.906706 40.370421 139.630662 0.00062724 89.953576 0.00062724 Z M 89.953576 0.00062724 " stroke="#060606" stroke-width="2" stroke-opacity="1" stroke-miterlimit="4"/></g></g><g clip-path="url(#26dd073261)"><path fill="#55833d" d="M 74.996094 30.292969 C 62.988281 30.292969 51.476562 35.011719 42.910156 43.316406 L 42.910156 41.199219 C 42.910156 40.179688 42.085938 39.351562 41.066406 39.351562 C 40.046875 39.351562 39.222656 40.179688 39.222656 41.199219 L 39.222656 47.722656 C 39.222656 48.742188 40.046875 49.570312 41.066406 49.570312 L 47.589844 49.570312 C 48.609375 49.570312 49.4375 48.742188 49.4375 47.722656 C 49.4375 46.703125 48.609375 45.878906 47.589844 45.878906 L 45.574219 45.878906 C 53.441406 38.292969 63.992188 33.984375 74.996094 33.984375 C 98.398438 33.984375 117.441406 53.027344 117.441406 76.429688 C 117.441406 99.835938 98.398438 118.878906 74.996094 118.878906 C 51.589844 118.878906 32.550781 99.835938 32.550781 76.429688 C 32.550781 69.292969 34.367188 62.222656 37.800781 55.988281 C 38.292969 55.097656 37.96875 53.972656 37.074219 53.480469 C 36.183594 52.988281 35.058594 53.3125 34.570312 54.207031 C 30.832031 60.988281 28.859375 68.671875 28.859375 76.429688 C 28.859375 101.871094 49.554688 122.566406 74.996094 122.566406 C 100.433594 122.566406 121.132812 101.871094 121.132812 76.429688 C 121.132812 50.992188 100.433594 30.292969 74.996094 30.292969 Z M 74.996094 30.292969 " fill-opacity="1" fill-rule="nonzero"/></g><path fill="#55833d" d="M 69.457031 83.074219 L 68.382812 85.660156 L 70.535156 85.660156 Z M 69.457031 83.074219 " fill-opacity="1" fill-rule="nonzero"/><path fill="#55833d" d="M 57.464844 85.660156 L 57.464844 81.96875 C 57.464844 80.949219 56.636719 80.121094 55.617188 80.121094 L 53.773438 80.121094 L 53.773438 87.503906 L 55.617188 87.503906 C 56.636719 87.503906 57.464844 86.675781 57.464844 85.660156 Z M 57.464844 85.660156 " fill-opacity="1" fill-rule="nonzero"/><path fill="#55833d" d="M 74.996094 111.496094 C 94.328125 111.496094 110.058594 95.765625 110.058594 76.429688 C 110.058594 57.097656 94.328125 41.367188 74.996094 41.367188 C 55.660156 41.367188 39.929688 57.097656 39.929688 76.429688 C 39.929688 95.765625 55.660156 111.496094 74.996094 111.496094 Z M 95.71875 86.066406 L 92.75 85.050781 C 90.960938 84.4375 89.757812 82.753906 89.757812 80.859375 C 89.757812 78.417969 91.746094 76.429688 94.1875 76.429688 L 98.0625 76.429688 C 99.082031 76.429688 99.910156 77.257812 99.910156 78.277344 C 99.910156 79.296875 99.082031 80.121094 98.0625 80.121094 L 94.1875 80.121094 C 93.78125 80.121094 93.449219 80.453125 93.449219 80.859375 C 93.449219 81.175781 93.648438 81.457031 93.949219 81.558594 L 96.917969 82.578125 C 98.707031 83.191406 99.910156 84.875 99.910156 86.765625 C 99.910156 89.207031 97.921875 91.195312 95.480469 91.195312 L 91.605469 91.195312 C 90.585938 91.195312 89.757812 90.367188 89.757812 89.351562 C 89.757812 88.332031 90.585938 87.503906 91.605469 87.503906 L 95.480469 87.503906 C 95.886719 87.503906 96.21875 87.171875 96.21875 86.765625 C 96.21875 86.449219 96.019531 86.171875 95.71875 86.066406 Z M 84.128906 77.167969 C 84.742188 76.355469 85.898438 76.1875 86.714844 76.800781 C 87.53125 77.410156 87.695312 78.570312 87.082031 79.382812 L 83.300781 84.429688 L 83.300781 89.351562 C 83.300781 90.367188 82.472656 91.195312 81.453125 91.195312 C 80.433594 91.195312 79.609375 90.367188 79.609375 89.351562 L 79.609375 84.429688 L 75.824219 79.382812 C 75.214844 78.570312 75.378906 77.410156 76.195312 76.800781 C 77.011719 76.1875 78.167969 76.355469 78.777344 77.167969 L 81.453125 80.738281 Z M 70.957031 56.132812 L 79.03125 56.132812 C 80.6875 56.132812 81.375 58.214844 80.335938 59.28125 C 80.28125 59.339844 76.035156 63.753906 76.035156 70.894531 C 76.035156 71.914062 75.207031 72.742188 74.1875 72.742188 C 73.167969 72.742188 72.34375 71.914062 72.34375 70.894531 C 72.34375 66.042969 73.933594 62.261719 75.386719 59.824219 L 70.957031 59.824219 C 69.9375 59.824219 69.113281 58.996094 69.113281 57.976562 C 69.113281 56.957031 69.9375 56.132812 70.957031 56.132812 Z M 63.140625 88.640625 L 67.753906 77.566406 C 68.042969 76.878906 68.714844 76.429688 69.457031 76.429688 C 70.203125 76.429688 70.875 76.878906 71.160156 77.566406 L 75.777344 88.640625 C 76.167969 89.582031 75.722656 90.660156 74.78125 91.054688 C 73.859375 91.441406 72.753906 90.984375 72.371094 90.058594 C 72.367188 90.058594 72.074219 89.351562 72.074219 89.351562 L 66.84375 89.351562 L 66.546875 90.058594 C 66.15625 91 65.078125 91.449219 64.136719 91.054688 C 63.195312 90.660156 62.75 89.582031 63.140625 88.640625 Z M 50.082031 78.277344 C 50.082031 77.257812 50.90625 76.429688 51.925781 76.429688 L 55.617188 76.429688 C 58.671875 76.429688 61.152344 78.914062 61.152344 81.96875 L 61.152344 85.660156 C 61.152344 88.710938 58.671875 91.195312 55.617188 91.195312 L 51.925781 91.195312 C 50.90625 91.195312 50.082031 90.367188 50.082031 89.351562 Z M 50.082031 78.277344 " fill-opacity="1" fill-rule="nonzero"/><g fill="#060606" fill-opacity="1"><g transform="translate(40.437744, 28.199736)"><g><path d="M 0.265625 -5.6875 L 0.671875 -5.171875 L 1.625 -1.234375 L 0.75 -0.5625 L -0.15625 -4.34375 L -1.296875 -3.46875 L -0.859375 -2.890625 L -1.578125 -2.34375 L -2.515625 -3.5625 Z M 0.265625 -5.6875 "/></g></g></g><g fill="#060606" fill-opacity="1"><g transform="translate(45.083248, 24.82734)"><g/></g></g><g fill="#060606" fill-opacity="1"><g transform="translate(48.151934, 22.897654)"><g><path d="M -1.5 -4.125 L 0.28125 -5.015625 C 0.695312 -5.222656 1.109375 -5.332031 1.515625 -5.34375 C 1.921875 -5.351562 2.285156 -5.253906 2.609375 -5.046875 C 2.929688 -4.847656 3.191406 -4.550781 3.390625 -4.15625 C 3.585938 -3.769531 3.671875 -3.382812 3.640625 -3 C 3.609375 -2.613281 3.46875 -2.253906 3.21875 -1.921875 C 2.976562 -1.597656 2.648438 -1.332031 2.234375 -1.125 L 0.453125 -0.234375 Z M 1.8125 -1.84375 C 2.207031 -2.03125 2.460938 -2.289062 2.578125 -2.625 C 2.703125 -2.96875 2.671875 -3.328125 2.484375 -3.703125 C 2.296875 -4.078125 2.03125 -4.3125 1.6875 -4.40625 C 1.351562 -4.5 0.988281 -4.453125 0.59375 -4.265625 L -0.21875 -3.84375 L 1 -1.421875 Z M 1.8125 -1.84375 "/></g></g></g><g fill="#060606" fill-opacity="1"><g transform="translate(54.427196, 19.878784)"><g><path d="M 2.875 -2.03125 L 0.96875 -1.34375 L 0.921875 -0.328125 L -0.0625 0.015625 L 0.3125 -4.75 L 1.25 -5.078125 L 4.5625 -1.625 L 3.5625 -1.265625 Z M 2.328125 -2.640625 L 1.109375 -3.96875 L 1.015625 -2.171875 Z M 2.328125 -2.640625 "/></g></g></g><g fill="#060606" fill-opacity="1"><g transform="translate(60.68724, 17.779796)"><g><path d="M 2.203125 -2.078125 L 2.546875 -0.578125 L 1.5625 -0.359375 L 1.21875 -1.875 L -1.078125 -4.234375 L -0.03125 -4.46875 L 1.546875 -2.84375 L 2.25 -5 L 3.21875 -5.21875 Z M 2.203125 -2.078125 "/></g></g></g><g fill="#060606" fill-opacity="1"><g transform="translate(66.60939, 16.52692)"><g><path d="M 1.953125 -0.15625 C 1.609375 -0.113281 1.269531 -0.117188 0.9375 -0.171875 C 0.601562 -0.234375 0.332031 -0.328125 0.125 -0.453125 L 0.375 -1.234375 C 0.582031 -1.128906 0.816406 -1.050781 1.078125 -1 C 1.347656 -0.945312 1.609375 -0.9375 1.859375 -0.96875 C 2.148438 -1 2.359375 -1.0625 2.484375 -1.15625 C 2.609375 -1.257812 2.660156 -1.378906 2.640625 -1.515625 C 2.628906 -1.617188 2.578125 -1.695312 2.484375 -1.75 C 2.398438 -1.8125 2.289062 -1.851562 2.15625 -1.875 C 2.019531 -1.90625 1.847656 -1.9375 1.640625 -1.96875 C 1.296875 -2 1.015625 -2.039062 0.796875 -2.09375 C 0.578125 -2.15625 0.378906 -2.265625 0.203125 -2.421875 C 0.0351562 -2.578125 -0.0625 -2.800781 -0.09375 -3.09375 C -0.125 -3.332031 -0.0859375 -3.5625 0.015625 -3.78125 C 0.128906 -4.007812 0.316406 -4.195312 0.578125 -4.34375 C 0.835938 -4.5 1.164062 -4.601562 1.5625 -4.65625 C 1.84375 -4.6875 2.117188 -4.679688 2.390625 -4.640625 C 2.660156 -4.609375 2.898438 -4.539062 3.109375 -4.4375 L 2.890625 -3.65625 C 2.472656 -3.820312 2.0625 -3.882812 1.65625 -3.84375 C 1.375 -3.8125 1.171875 -3.742188 1.046875 -3.640625 C 0.921875 -3.535156 0.867188 -3.40625 0.890625 -3.25 C 0.898438 -3.101562 0.988281 -3.003906 1.15625 -2.953125 C 1.320312 -2.898438 1.570312 -2.859375 1.90625 -2.828125 C 2.25 -2.785156 2.523438 -2.734375 2.734375 -2.671875 C 2.953125 -2.617188 3.144531 -2.515625 3.3125 -2.359375 C 3.476562 -2.210938 3.578125 -1.992188 3.609375 -1.703125 C 3.640625 -1.460938 3.601562 -1.226562 3.5 -1 C 3.394531 -0.78125 3.207031 -0.59375 2.9375 -0.4375 C 2.675781 -0.289062 2.347656 -0.195312 1.953125 -0.15625 Z M 1.953125 -0.15625 "/></g></g></g><g fill="#060606" fill-opacity="1"><g transform="translate(72.433624, 15.971155)"><g/></g></g><g fill="#060606" fill-opacity="1"><g transform="translate(76.064921, 15.882352)"><g><path d="M 3.296875 0.203125 L 2.53125 -1.0625 L 2.484375 -1.0625 L 1.609375 -1.125 L 1.53125 0.09375 L 0.515625 0.03125 L 0.78125 -4.3125 L 2.671875 -4.1875 C 3.054688 -4.164062 3.390625 -4.085938 3.671875 -3.953125 C 3.953125 -3.816406 4.15625 -3.625 4.28125 -3.375 C 4.414062 -3.125 4.472656 -2.835938 4.453125 -2.515625 C 4.429688 -2.191406 4.335938 -1.914062 4.171875 -1.6875 C 4.003906 -1.46875 3.78125 -1.300781 3.5 -1.1875 L 4.359375 0.265625 Z M 3.453125 -2.578125 C 3.460938 -2.816406 3.394531 -3.007812 3.25 -3.15625 C 3.101562 -3.300781 2.875 -3.382812 2.5625 -3.40625 L 1.75 -3.453125 L 1.65625 -1.921875 L 2.46875 -1.875 C 2.78125 -1.851562 3.019531 -1.90625 3.1875 -2.03125 C 3.351562 -2.15625 3.441406 -2.335938 3.453125 -2.578125 Z M 3.453125 -2.578125 "/></g></g></g><g fill="#060606" fill-opacity="1"><g transform="translate(82.457006, 16.395744)"><g><path d="M 3.96875 -0.109375 L 3.828125 0.6875 L 0.5 0.09375 L 1.265625 -4.203125 L 4.515625 -3.625 L 4.375 -2.8125 L 2.125 -3.21875 L 1.953125 -2.296875 L 3.9375 -1.9375 L 3.796875 -1.171875 L 1.8125 -1.53125 L 1.640625 -0.53125 Z M 3.96875 -0.109375 "/></g></g></g><g fill="#060606" fill-opacity="1"><g transform="translate(88.36838, 17.556024)"><g><path d="M 2.34375 -3.015625 L 1.015625 -3.390625 L 1.25 -4.171875 L 4.890625 -3.109375 L 4.65625 -2.328125 L 3.328125 -2.71875 L 2.34375 0.6875 L 1.359375 0.390625 Z M 2.34375 -3.015625 "/></g></g></g><g fill="#060606" fill-opacity="1"><g transform="translate(93.80542, 19.217078)"><g><path d="M 2.234375 1.03125 C 1.648438 0.789062 1.269531 0.445312 1.09375 0 C 0.914062 -0.457031 0.953125 -0.984375 1.203125 -1.578125 L 2.140625 -3.828125 L 3.0625 -3.4375 L 2.125 -1.21875 C 1.820312 -0.5 1.972656 -0.015625 2.578125 0.234375 C 2.859375 0.359375 3.113281 0.363281 3.34375 0.25 C 3.582031 0.132812 3.773438 -0.101562 3.921875 -0.46875 L 4.859375 -2.6875 L 5.78125 -2.296875 L 4.84375 -0.046875 C 4.59375 0.546875 4.238281 0.929688 3.78125 1.109375 C 3.320312 1.296875 2.804688 1.269531 2.234375 1.03125 Z M 2.234375 1.03125 "/></g></g></g><g fill="#060606" fill-opacity="1"><g transform="translate(99.966388, 21.932704)"><g><path d="M 2.859375 1.625 L 2.734375 0.15625 L 2.703125 0.125 L 1.9375 -0.296875 L 1.328125 0.765625 L 0.453125 0.25 L 2.609375 -3.53125 L 4.25 -2.59375 C 4.582031 -2.394531 4.84375 -2.171875 5.03125 -1.921875 C 5.21875 -1.679688 5.316406 -1.421875 5.328125 -1.140625 C 5.335938 -0.859375 5.265625 -0.578125 5.109375 -0.296875 C 4.953125 -0.015625 4.742188 0.1875 4.484375 0.3125 C 4.234375 0.4375 3.957031 0.488281 3.65625 0.46875 L 3.796875 2.171875 Z M 4.21875 -0.796875 C 4.332031 -1.003906 4.351562 -1.203125 4.28125 -1.390625 C 4.21875 -1.585938 4.050781 -1.765625 3.78125 -1.921875 L 3.078125 -2.3125 L 2.328125 -0.984375 L 3.03125 -0.59375 C 3.300781 -0.4375 3.535156 -0.378906 3.734375 -0.421875 C 3.941406 -0.460938 4.101562 -0.585938 4.21875 -0.796875 Z M 4.21875 -0.796875 "/></g></g></g><g fill="#060606" fill-opacity="1"><g transform="translate(105.481076, 25.183388)"><g><path d="M 6.21875 -0.8125 L 3.625 2.6875 L 2.953125 2.203125 L 2.796875 -1.21875 L 1.21875 0.90625 L 0.40625 0.3125 L 3 -3.1875 L 3.6875 -2.6875 L 3.859375 0.71875 L 5.421875 -1.40625 Z M 6.21875 -0.8125 "/></g></g></g></svg>