<svg xmlns="http://www.w3.org/2000/svg" xmlns:xlink="http://www.w3.org/1999/xlink" width="200" zoomAndPan="magnify" viewBox="0 0 150 149.999998" height="200" preserveAspectRatio="xMidYMid meet" version="1.0"><defs><g/><clipPath id="f5d7efbe23"><path d="M 4.789062 4.789062 L 145.039062 4.789062 L 145.039062 145.039062 L 4.789062 145.039062 Z M 4.789062 4.789062 " clip-rule="nonzero"/></clipPath><clipPath id="bb3e540ea9"><path d="M 74.996094 4.789062 C 36.21875 4.789062 4.789062 36.21875 4.789062 74.996094 C 4.789062 113.769531 36.21875 145.203125 74.996094 145.203125 C 113.769531 145.203125 145.203125 113.769531 145.203125 74.996094 C 145.203125 36.21875 113.769531 4.789062 74.996094 4.789062 Z M 74.996094 4.789062 " clip-rule="nonzero"/></clipPath><clipPath id="0c3acf535a"><path d="M 7.375 7.375 L 142.375 7.375 L 142.375 142.375 L 7.375 142.375 Z M 7.375 7.375 " clip-rule="nonzero"/></clipPath><clipPath id="c71cd92d27"><path d="M 74.839844 7.375 C 37.578125 7.375 7.375 37.652344 7.375 74.996094 C 7.375 112.34375 37.578125 142.621094 74.839844 142.621094 C 112.097656 142.621094 142.304688 112.34375 142.304688 74.996094 C 142.304688 37.652344 112.097656 7.375 74.839844 7.375 Z M 74.839844 7.375 " clip-rule="nonzero"/></clipPath><clipPath id="4d18386720"><path d="M 20.304688 60 L 135 60 L 135 101 L 20.304688 101 Z M 20.304688 60 " clip-rule="nonzero"/></clipPath><clipPath id="d42295c9b3"><path d="M 75 57.367188 L 78 57.367188 L 78 62 L 75 62 Z M 75 57.367188 " clip-rule="nonzero"/></clipPath><clipPath id="7d1f040435"><path d="M 29 57.367188 L 125 57.367188 L 125 103.867188 L 29 103.867188 Z M 29 57.367188 " clip-rule="nonzero"/></clipPath></defs><rect x="-15" width="180" fill="#ffffff" y="-15" height="179.999997" fill-opacity="1"/><rect x="-15" width="180" fill="#ffffff" y="-15" height="179.999997" fill-opacity="1"/><g clip-path="url(#f5d7efbe23)"><g clip-path="url(#bb3e540ea9)"><path stroke-linecap="butt" transform="matrix(0.75, 0, 0, 0.75, 4.787235, 4.787236)" fill="none" stroke-linejoin="miter" d="M 93.611817 0.00243517 C 41.908689 0.00243517 0.00243617 41.908688 0.00243617 93.611816 C 0.00243617 145.309735 41.908689 187.221196 93.611817 187.221196 C 145.309736 187.221196 187.221197 145.309735 187.221197 93.611816 C 187.221197 41.908688 145.309736 0.00243517 93.611817 0.00243517 Z M 93.611817 0.00243517 " stroke="#060606" stroke-width="2" stroke-opacity="1" stroke-miterlimit="4"/></g></g><g clip-path="url(#0c3acf535a)"><g clip-path="url(#c71cd92d27)"><path stroke-linecap="butt" transform="matrix(0.75, 0, 0, 0.75, 7.374666, 7.37453)" fill="none" stroke-linejoin="miter" d="M 89.953576 0.00062724 C 40.271282 0.00062724 0.00044584 40.370421 0.00044584 90.162091 C 0.00044584 139.958969 40.271282 180.328763 89.953576 180.328763 C 139.630662 180.328763 179.906706 139.958969 179.906706 90.162091 C 179.906706 40.370421 139.630662 0.00062724 89.953576 0.00062724 Z M 89.953576 0.00062724 " stroke="#060606" stroke-width="2" stroke-opacity="1" stroke-miterlimit="4"/></g></g><g clip-path="url(#4d18386720)"><path fill="#181b13" d="M 125.589844 100.429688 L 23.429688 100.429688 C 21.578125 100.429688 20.304688 98.902344 20.605469 97.046875 L 25.816406 64.367188 C 26.117188 62.515625 27.875 60.988281 29.730469 60.988281 L 131.867188 60.988281 C 133.722656 60.988281 134.996094 62.515625 134.695312 64.367188 L 129.484375 97.046875 C 129.203125 98.902344 127.445312 100.429688 125.589844 100.429688 Z M 125.589844 100.429688 " fill-opacity="1" fill-rule="nonzero"/></g><g clip-path="url(#d42295c9b3)"><path fill="#2e2e70" d="M 75.726562 57.421875 L 77.371094 61.011719 L 75.148438 61.011719 Z M 75.726562 57.421875 " fill-opacity="1" fill-rule="nonzero"/></g><path fill="#006838" d="M 62.546875 76.296875 C 62.480469 76.179688 62.363281 76.113281 62.222656 76.113281 L 59.839844 76.113281 C 59.605469 76.113281 59.375 76.296875 59.328125 76.550781 L 58.585938 81.183594 C 58.542969 81.414062 58.703125 81.625 58.957031 81.625 L 64.585938 81.625 C 64.933594 81.625 65.1875 81.230469 65.050781 80.953125 Z M 62.546875 76.296875 " fill-opacity="1" fill-rule="nonzero"/><g clip-path="url(#7d1f040435)"><path fill="#8cc342" d="M 84.851562 69.464844 L 84.273438 73.03125 L 88.417969 73.03125 L 87.886719 76.414062 L 83.761719 76.414062 L 82.652344 83.335938 L 78.667969 83.335938 L 81.449219 65.945312 L 89.925781 65.945312 L 89.367188 69.488281 L 84.851562 69.488281 Z M 96.59375 83.3125 L 95.367188 76.390625 L 94.207031 76.390625 L 93.097656 83.3125 L 89.300781 83.3125 L 92.078125 65.921875 L 97.660156 65.921875 C 99.351562 65.921875 100.578125 66.359375 101.367188 67.21875 C 102.152344 68.097656 102.429688 69.394531 102.128906 71.132812 C 102.039062 71.757812 101.875 72.335938 101.621094 72.84375 C 101.410156 73.355469 101.132812 73.796875 100.855469 74.144531 C 100.554688 74.511719 100.253906 74.792969 99.90625 75.046875 C 99.558594 75.277344 99.257812 75.441406 98.957031 75.53125 L 100.695312 83.3125 L 96.570312 83.3125 Z M 98.238281 71.363281 C 98.308594 70.921875 98.308594 70.574219 98.238281 70.273438 C 98.167969 69.972656 98.054688 69.765625 97.867188 69.625 C 97.707031 69.464844 97.496094 69.371094 97.265625 69.277344 C 97.058594 69.234375 96.804688 69.1875 96.59375 69.1875 L 95.367188 69.1875 L 94.671875 73.585938 L 95.832031 73.585938 C 96.386719 73.585938 96.894531 73.425781 97.382812 73.054688 C 97.820312 72.730469 98.121094 72.175781 98.238281 71.363281 Z M 102.617188 83.3125 L 105.394531 65.921875 L 113.804688 65.921875 L 113.246094 69.394531 L 108.613281 69.394531 L 108.058594 72.824219 L 112.320312 72.824219 L 111.8125 76.066406 L 107.550781 76.066406 L 106.945312 79.792969 L 111.902344 79.792969 L 111.347656 83.335938 L 102.640625 83.335938 L 102.640625 83.3125 Z M 113.617188 83.3125 L 116.398438 65.921875 L 124.804688 65.921875 L 124.25 69.394531 L 119.617188 69.394531 L 119.058594 72.824219 L 123.320312 72.824219 L 122.8125 76.066406 L 118.550781 76.066406 L 117.949219 79.816406 L 122.90625 79.816406 L 122.347656 83.359375 L 113.640625 83.359375 L 113.640625 83.3125 Z M 80.496094 89.058594 C 80.382812 88.894531 80.242188 88.757812 80.058594 88.664062 C 79.894531 88.570312 79.6875 88.527344 79.480469 88.527344 C 79.269531 88.527344 79.0625 88.59375 78.875 88.710938 C 78.691406 88.851562 78.550781 89.082031 78.507812 89.382812 C 78.460938 89.636719 78.527344 89.84375 78.667969 90.007812 C 78.808594 90.148438 79.0625 90.332031 79.363281 90.492188 C 79.523438 90.585938 79.734375 90.703125 79.917969 90.839844 C 80.105469 90.957031 80.289062 91.144531 80.429688 91.328125 C 80.566406 91.511719 80.683594 91.746094 80.777344 92.023438 C 80.84375 92.277344 80.84375 92.601562 80.800781 92.996094 C 80.730469 93.457031 80.589844 93.875 80.382812 94.199219 C 80.195312 94.546875 79.941406 94.824219 79.664062 95.078125 C 79.363281 95.289062 79.0625 95.496094 78.714844 95.589844 C 78.367188 95.707031 78.042969 95.75 77.695312 95.75 C 77.1875 95.75 76.722656 95.660156 76.351562 95.449219 C 75.957031 95.265625 75.65625 95.035156 75.425781 94.777344 L 76.628906 93.320312 C 76.769531 93.503906 76.976562 93.667969 77.1875 93.78125 C 77.394531 93.898438 77.648438 93.945312 77.878906 93.945312 C 78.113281 93.945312 78.320312 93.875 78.507812 93.738281 C 78.691406 93.597656 78.808594 93.367188 78.851562 93.109375 C 78.898438 92.808594 78.832031 92.601562 78.667969 92.441406 C 78.507812 92.277344 78.25 92.09375 77.925781 91.90625 C 77.71875 91.792969 77.511719 91.675781 77.324219 91.535156 C 77.140625 91.398438 76.976562 91.234375 76.863281 91.050781 C 76.746094 90.863281 76.652344 90.632812 76.605469 90.378906 C 76.558594 90.125 76.558594 89.824219 76.628906 89.453125 C 76.699219 88.964844 76.839844 88.570312 77.070312 88.246094 C 77.277344 87.898438 77.535156 87.621094 77.8125 87.4375 C 78.113281 87.226562 78.390625 87.042969 78.738281 86.949219 C 79.0625 86.859375 79.386719 86.8125 79.6875 86.8125 C 80.152344 86.8125 80.566406 86.882812 80.890625 87.019531 C 81.238281 87.160156 81.515625 87.390625 81.703125 87.644531 Z M 85.363281 95.496094 L 85.917969 91.953125 L 83.949219 91.953125 L 83.394531 95.496094 L 81.46875 95.496094 L 82.8125 87.019531 L 84.714844 87.019531 L 84.203125 90.238281 L 86.171875 90.238281 L 86.683594 87.019531 L 88.582031 87.019531 L 87.238281 95.496094 Z M 88.765625 95.496094 L 90.109375 87.019531 L 92.03125 87.019531 L 90.6875 95.496094 Z M 98.378906 89.683594 C 98.308594 90.167969 98.167969 90.5625 97.960938 90.910156 C 97.777344 91.257812 97.519531 91.535156 97.265625 91.746094 C 97.011719 91.953125 96.6875 92.136719 96.363281 92.253906 C 96.039062 92.347656 95.738281 92.417969 95.414062 92.417969 L 94.601562 92.417969 L 94.117188 95.496094 L 92.242188 95.496094 L 93.582031 87.019531 L 96.222656 87.019531 C 96.546875 87.019531 96.824219 87.066406 97.128906 87.136719 C 97.429688 87.226562 97.683594 87.367188 97.890625 87.574219 C 98.101562 87.761719 98.285156 88.0625 98.378906 88.386719 C 98.449219 88.78125 98.46875 89.175781 98.378906 89.683594 Z M 96.59375 89.730469 C 96.664062 89.335938 96.617188 89.082031 96.457031 88.917969 C 96.292969 88.757812 96.085938 88.6875 95.832031 88.6875 L 95.203125 88.6875 L 94.835938 90.910156 L 95.4375 90.910156 C 95.691406 90.910156 95.945312 90.816406 96.15625 90.609375 C 96.363281 90.378906 96.5 90.101562 96.59375 89.730469 Z M 104.632812 89.683594 C 104.5625 90.167969 104.421875 90.5625 104.214844 90.910156 C 104.027344 91.257812 103.773438 91.535156 103.519531 91.746094 C 103.265625 91.953125 102.941406 92.136719 102.617188 92.253906 C 102.292969 92.347656 101.992188 92.417969 101.667969 92.417969 L 100.855469 92.417969 L 100.371094 95.496094 L 98.492188 95.496094 L 99.835938 87.019531 L 102.476562 87.019531 C 102.800781 87.019531 103.078125 87.066406 103.378906 87.136719 C 103.679688 87.226562 103.9375 87.367188 104.144531 87.574219 C 104.351562 87.761719 104.539062 88.0625 104.632812 88.386719 C 104.699219 88.78125 104.722656 89.175781 104.632812 89.683594 Z M 102.824219 89.730469 C 102.894531 89.335938 102.847656 89.082031 102.6875 88.917969 C 102.523438 88.757812 102.316406 88.6875 102.058594 88.6875 L 101.457031 88.6875 L 101.085938 90.910156 L 101.691406 90.910156 C 101.945312 90.910156 102.199219 90.816406 102.40625 90.609375 C 102.640625 90.378906 102.753906 90.101562 102.824219 89.730469 Z M 104.722656 95.496094 L 106.066406 87.019531 L 107.988281 87.019531 L 106.644531 95.496094 Z M 111.8125 95.496094 L 110.675781 90.332031 L 110.652344 90.332031 L 109.886719 95.496094 L 108.175781 95.496094 L 109.519531 87.019531 L 111.625 87.019531 L 112.738281 92.253906 L 112.761719 92.253906 L 113.546875 87.019531 L 115.191406 87.019531 L 113.847656 95.496094 Z M 119.777344 95.496094 C 119.363281 95.613281 118.898438 95.683594 118.410156 95.683594 C 117.878906 95.683594 117.414062 95.589844 117.046875 95.359375 C 116.675781 95.125 116.351562 94.847656 116.117188 94.453125 C 115.886719 94.0625 115.726562 93.621094 115.65625 93.066406 C 115.585938 92.53125 115.609375 91.929688 115.703125 91.257812 C 115.792969 90.609375 116.003906 89.984375 116.234375 89.453125 C 116.464844 88.894531 116.765625 88.433594 117.136719 88.039062 C 117.507812 87.644531 117.878906 87.34375 118.320312 87.113281 C 118.757812 86.902344 119.222656 86.789062 119.707031 86.789062 C 120.289062 86.789062 120.75 86.882812 121.097656 87.089844 C 121.46875 87.273438 121.722656 87.53125 121.886719 87.832031 L 120.636719 89.21875 C 120.425781 88.804688 120.054688 88.617188 119.546875 88.617188 C 119.292969 88.617188 119.035156 88.6875 118.828125 88.828125 C 118.621094 88.964844 118.410156 89.175781 118.25 89.40625 C 118.085938 89.636719 117.925781 89.9375 117.832031 90.238281 C 117.71875 90.5625 117.648438 90.886719 117.601562 91.257812 C 117.554688 91.628906 117.53125 91.953125 117.53125 92.277344 C 117.53125 92.601562 117.578125 92.878906 117.671875 93.109375 C 117.761719 93.34375 117.878906 93.550781 118.0625 93.691406 C 118.226562 93.828125 118.457031 93.898438 118.710938 93.898438 C 119.015625 93.898438 119.246094 93.851562 119.40625 93.738281 L 119.640625 92.136719 L 118.710938 92.136719 L 118.96875 90.472656 L 121.5625 90.472656 L 120.84375 94.988281 C 120.542969 95.21875 120.195312 95.382812 119.777344 95.496094 Z M 35.707031 57.421875 L 29.128906 98.691406 C 28.664062 101.566406 30.632812 103.902344 33.527344 103.902344 L 63.128906 103.902344 C 66 103.902344 68.730469 101.566406 69.195312 98.691406 L 75.75 57.421875 Z M 46.453125 89.175781 C 46.453125 89.265625 46.429688 89.382812 46.429688 89.519531 C 46.40625 89.636719 46.382812 89.730469 46.359375 89.867188 C 45.941406 91.46875 44.414062 92.695312 42.769531 92.695312 C 41.125 92.695312 39.988281 91.445312 40.058594 89.867188 C 40.058594 89.777344 40.082031 89.660156 40.082031 89.519531 C 40.105469 89.40625 40.128906 89.3125 40.152344 89.175781 C 40.570312 87.574219 42.097656 86.347656 43.742188 86.347656 C 45.386719 86.347656 46.519531 87.621094 46.453125 89.175781 Z M 62.964844 89.175781 C 62.964844 89.265625 62.941406 89.382812 62.941406 89.519531 C 62.917969 89.636719 62.894531 89.730469 62.871094 89.867188 C 62.457031 91.46875 60.925781 92.695312 59.28125 92.695312 C 57.636719 92.695312 56.503906 91.445312 56.574219 89.867188 C 56.574219 89.777344 56.597656 89.660156 56.597656 89.519531 C 56.621094 89.40625 56.640625 89.3125 56.664062 89.175781 C 57.082031 87.574219 58.609375 86.347656 60.253906 86.347656 C 61.898438 86.347656 63.058594 87.621094 62.964844 89.175781 Z M 67.226562 82.734375 L 66.417969 87.898438 C 66.300781 88.59375 65.652344 89.152344 64.957031 89.152344 L 63.867188 89.152344 C 64.007812 87.066406 62.546875 85.46875 60.417969 85.46875 C 58.308594 85.46875 56.316406 87.089844 55.808594 89.152344 L 47.332031 89.152344 C 47.472656 87.066406 46.011719 85.46875 43.882812 85.46875 C 41.773438 85.46875 39.78125 87.089844 39.273438 89.152344 L 36.933594 89.152344 C 36.261719 89.152344 35.820312 88.617188 35.914062 87.945312 L 38.554688 71.410156 L 56.945312 71.410156 C 57.636719 71.410156 58.101562 71.964844 58.007812 72.660156 L 57.917969 73.308594 L 57.824219 74.050781 L 62.015625 74.050781 C 63.011719 74.050781 63.84375 74.535156 64.261719 75.347656 L 66.972656 80.628906 C 67.226562 81.277344 67.367188 81.996094 67.226562 82.734375 Z M 67.226562 82.734375 " fill-opacity="1" fill-rule="nonzero"/></g><g fill="#060606" fill-opacity="1"><g transform="translate(41.165199, 27.623872)"><g><path d="M -0.859375 -3.765625 L -0.1875 -2.84375 L 1.4375 -4.03125 L 1.921875 -3.375 L 0.296875 -2.1875 L 1.234375 -0.90625 L 0.421875 -0.296875 L -2.15625 -3.8125 L 0.5 -5.765625 L 0.984375 -5.109375 Z M -0.859375 -3.765625 "/></g></g></g><g fill="#060606" fill-opacity="1"><g transform="translate(45.910583, 24.257465)"><g><path d="M 2.859375 -1.640625 L 1.515625 -2.28125 L 1.484375 -2.25 L 0.71875 -1.828125 L 1.328125 -0.765625 L 0.453125 -0.25 L -1.71875 -4.03125 L -0.078125 -4.96875 C 0.253906 -5.164062 0.578125 -5.28125 0.890625 -5.3125 C 1.203125 -5.34375 1.484375 -5.289062 1.734375 -5.15625 C 1.984375 -5.03125 2.191406 -4.828125 2.359375 -4.546875 C 2.515625 -4.273438 2.582031 -4 2.5625 -3.71875 C 2.539062 -3.4375 2.4375 -3.164062 2.25 -2.90625 L 3.796875 -2.171875 Z M 1.46875 -4.03125 C 1.34375 -4.238281 1.175781 -4.363281 0.96875 -4.40625 C 0.769531 -4.445312 0.535156 -4.390625 0.265625 -4.234375 L -0.4375 -3.84375 L 0.328125 -2.515625 L 1.03125 -2.90625 C 1.300781 -3.0625 1.46875 -3.238281 1.53125 -3.4375 C 1.601562 -3.632812 1.582031 -3.832031 1.46875 -4.03125 Z M 1.46875 -4.03125 "/></g></g></g><g fill="#060606" fill-opacity="1"><g transform="translate(51.533147, 21.173764)"><g><path d="M 3.25 -2.28125 L 3.578125 -1.53125 L 0.46875 -0.203125 L -1.25 -4.203125 L 1.78125 -5.5 L 2.09375 -4.765625 L -0.015625 -3.859375 L 0.359375 -2.984375 L 2.234375 -3.796875 L 2.546875 -3.078125 L 0.671875 -2.265625 L 1.0625 -1.34375 Z M 3.25 -2.28125 "/></g></g></g><g fill="#060606" fill-opacity="1"><g transform="translate(57.103368, 18.891004)"><g><path d="M 3.484375 -1.90625 L 3.71875 -1.125 L 0.5 -0.15625 L -0.765625 -4.328125 L 2.375 -5.28125 L 2.609375 -4.5 L 0.421875 -3.828125 L 0.6875 -2.9375 L 2.625 -3.53125 L 2.859375 -2.78125 L 0.921875 -2.1875 L 1.21875 -1.21875 Z M 3.484375 -1.90625 "/></g></g></g><g fill="#060606" fill-opacity="1"><g transform="translate(62.932702, 17.25999)"><g/></g></g><g fill="#060606" fill-opacity="1"><g transform="translate(66.502435, 16.54606)"><g><path d="M 1.953125 -0.15625 C 1.609375 -0.113281 1.269531 -0.117188 0.9375 -0.171875 C 0.601562 -0.234375 0.332031 -0.328125 0.125 -0.453125 L 0.375 -1.234375 C 0.570312 -1.128906 0.800781 -1.050781 1.0625 -1 C 1.332031 -0.945312 1.59375 -0.9375 1.84375 -0.96875 C 2.132812 -1 2.34375 -1.0625 2.46875 -1.15625 C 2.59375 -1.257812 2.648438 -1.378906 2.640625 -1.515625 C 2.628906 -1.617188 2.578125 -1.703125 2.484375 -1.765625 C 2.398438 -1.828125 2.289062 -1.867188 2.15625 -1.890625 C 2.019531 -1.921875 1.847656 -1.945312 1.640625 -1.96875 C 1.296875 -2 1.015625 -2.039062 0.796875 -2.09375 C 0.578125 -2.15625 0.378906 -2.265625 0.203125 -2.421875 C 0.0351562 -2.578125 -0.0625 -2.800781 -0.09375 -3.09375 C -0.125 -3.332031 -0.0859375 -3.5625 0.015625 -3.78125 C 0.128906 -4.007812 0.3125 -4.195312 0.5625 -4.34375 C 0.820312 -4.5 1.148438 -4.601562 1.546875 -4.65625 C 1.828125 -4.6875 2.101562 -4.679688 2.375 -4.640625 C 2.644531 -4.609375 2.882812 -4.546875 3.09375 -4.453125 L 2.875 -3.65625 C 2.457031 -3.832031 2.046875 -3.894531 1.640625 -3.84375 C 1.359375 -3.8125 1.15625 -3.742188 1.03125 -3.640625 C 0.90625 -3.535156 0.851562 -3.410156 0.875 -3.265625 C 0.894531 -3.117188 0.984375 -3.015625 1.140625 -2.953125 C 1.304688 -2.898438 1.554688 -2.859375 1.890625 -2.828125 C 2.234375 -2.796875 2.507812 -2.75 2.71875 -2.6875 C 2.9375 -2.632812 3.128906 -2.53125 3.296875 -2.375 C 3.472656 -2.226562 3.578125 -2.007812 3.609375 -1.71875 C 3.640625 -1.476562 3.597656 -1.242188 3.484375 -1.015625 C 3.378906 -0.796875 3.195312 -0.609375 2.9375 -0.453125 C 2.675781 -0.296875 2.347656 -0.195312 1.953125 -0.15625 Z M 1.953125 -0.15625 "/></g></g></g><g fill="#060606" fill-opacity="1"><g transform="translate(72.275776, 15.928428)"><g><path d="M 4.5 -4.375 L 4.515625 -0.015625 L 3.515625 -0.015625 L 3.515625 -1.8125 L 1.53125 -1.796875 L 1.53125 0 L 0.515625 0 L 0.5 -4.359375 L 1.515625 -4.359375 L 1.515625 -2.640625 L 3.5 -2.65625 L 3.5 -4.375 Z M 4.5 -4.375 "/></g></g></g><g fill="#060606" fill-opacity="1"><g transform="translate(79.164235, 16.070192)"><g><path d="M 0.9375 -4.296875 L 1.953125 -4.203125 L 1.53125 0.140625 L 0.515625 0.046875 Z M 0.9375 -4.296875 "/></g></g></g><g fill="#060606" fill-opacity="1"><g transform="translate(83.052553, 16.471501)"><g><path d="M 3.1875 -3.828125 C 3.570312 -3.753906 3.890625 -3.625 4.140625 -3.4375 C 4.398438 -3.257812 4.582031 -3.039062 4.6875 -2.78125 C 4.789062 -2.519531 4.8125 -2.234375 4.75 -1.921875 C 4.6875 -1.597656 4.554688 -1.332031 4.359375 -1.125 C 4.171875 -0.914062 3.925781 -0.78125 3.625 -0.71875 C 3.320312 -0.65625 2.976562 -0.660156 2.59375 -0.734375 L 1.734375 -0.890625 L 1.5 0.296875 L 0.5 0.09375 L 1.328125 -4.1875 Z M 2.6875 -1.5625 C 3 -1.5 3.238281 -1.515625 3.40625 -1.609375 C 3.582031 -1.703125 3.695312 -1.867188 3.75 -2.109375 C 3.789062 -2.335938 3.75 -2.535156 3.625 -2.703125 C 3.5 -2.867188 3.28125 -2.984375 2.96875 -3.046875 L 2.171875 -3.1875 L 1.890625 -1.703125 Z M 2.6875 -1.5625 "/></g></g></g><g fill="#060606" fill-opacity="1"><g transform="translate(89.305559, 17.784327)"><g><path d="M 3.609375 -3.421875 C 3.972656 -3.304688 4.269531 -3.144531 4.5 -2.9375 C 4.738281 -2.738281 4.894531 -2.5 4.96875 -2.21875 C 5.039062 -1.945312 5.03125 -1.660156 4.9375 -1.359375 C 4.832031 -1.046875 4.671875 -0.796875 4.453125 -0.609375 C 4.242188 -0.429688 3.984375 -0.320312 3.671875 -0.28125 C 3.359375 -0.25 3.019531 -0.289062 2.65625 -0.40625 L 1.8125 -0.671875 L 1.453125 0.46875 L 0.484375 0.15625 L 1.796875 -4 Z M 2.84375 -1.234375 C 3.144531 -1.140625 3.390625 -1.128906 3.578125 -1.203125 C 3.765625 -1.273438 3.894531 -1.425781 3.96875 -1.65625 C 4.039062 -1.882812 4.023438 -2.085938 3.921875 -2.265625 C 3.816406 -2.441406 3.613281 -2.578125 3.3125 -2.671875 L 2.53125 -2.90625 L 2.0625 -1.46875 Z M 2.84375 -1.234375 "/></g></g></g><g fill="#060606" fill-opacity="1"><g transform="translate(95.381945, 19.867218)"><g><path d="M 2.171875 -3.8125 L 3.109375 -3.421875 L 1.40625 0.59375 L 0.46875 0.203125 Z M 2.171875 -3.8125 "/></g></g></g><g fill="#060606" fill-opacity="1"><g transform="translate(98.96666, 21.410518)"><g><path d="M 6.046875 -1.65625 L 3.953125 2.171875 L 3.234375 1.765625 L 2.609375 -1.59375 L 1.328125 0.734375 L 0.453125 0.25 L 2.546875 -3.578125 L 3.28125 -3.171875 L 3.90625 0.1875 L 5.171875 -2.140625 Z M 6.046875 -1.65625 "/></g></g></g><g fill="#060606" fill-opacity="1"><g transform="translate(104.918731, 24.807218)"><g><path d="M 4.125 0.203125 L 4.875 0.734375 L 3.84375 2.171875 C 3.539062 2.179688 3.234375 2.132812 2.921875 2.03125 C 2.617188 1.925781 2.335938 1.78125 2.078125 1.59375 C 1.710938 1.320312 1.441406 1.003906 1.265625 0.640625 C 1.085938 0.273438 1.015625 -0.101562 1.046875 -0.5 C 1.078125 -0.90625 1.222656 -1.285156 1.484375 -1.640625 C 1.734375 -1.984375 2.039062 -2.234375 2.40625 -2.390625 C 2.769531 -2.546875 3.15625 -2.59375 3.5625 -2.53125 C 3.96875 -2.476562 4.359375 -2.316406 4.734375 -2.046875 C 5.046875 -1.828125 5.289062 -1.570312 5.46875 -1.28125 C 5.644531 -0.988281 5.75 -0.6875 5.78125 -0.375 L 4.921875 -0.28125 C 4.847656 -0.71875 4.632812 -1.066406 4.28125 -1.328125 C 4.050781 -1.492188 3.8125 -1.59375 3.5625 -1.625 C 3.320312 -1.65625 3.09375 -1.617188 2.875 -1.515625 C 2.65625 -1.421875 2.46875 -1.265625 2.3125 -1.046875 C 2.15625 -0.816406 2.0625 -0.578125 2.03125 -0.328125 C 2 -0.0859375 2.035156 0.140625 2.140625 0.359375 C 2.242188 0.578125 2.410156 0.769531 2.640625 0.9375 C 2.867188 1.101562 3.113281 1.207031 3.375 1.25 Z M 4.125 0.203125 "/></g></g></g></svg>