<svg xmlns="http://www.w3.org/2000/svg" xmlns:xlink="http://www.w3.org/1999/xlink" width="200" zoomAndPan="magnify" viewBox="0 0 150 149.999998" height="200" preserveAspectRatio="xMidYMid meet" version="1.0"><defs><g/><clipPath id="054b8e23d1"><path d="M 4.789062 4.789062 L 145.039062 4.789062 L 145.039062 145.039062 L 4.789062 145.039062 Z M 4.789062 4.789062 " clip-rule="nonzero"/></clipPath><clipPath id="836d70195f"><path d="M 74.996094 4.789062 C 36.21875 4.789062 4.789062 36.21875 4.789062 74.996094 C 4.789062 113.769531 36.21875 145.203125 74.996094 145.203125 C 113.769531 145.203125 145.203125 113.769531 145.203125 74.996094 C 145.203125 36.21875 113.769531 4.789062 74.996094 4.789062 Z M 74.996094 4.789062 " clip-rule="nonzero"/></clipPath><clipPath id="67452518df"><path d="M 7.375 7.375 L 142.375 7.375 L 142.375 142.375 L 7.375 142.375 Z M 7.375 7.375 " clip-rule="nonzero"/></clipPath><clipPath id="82e2506db3"><path d="M 74.839844 7.375 C 37.578125 7.375 7.375 37.652344 7.375 74.996094 C 7.375 112.34375 37.578125 142.621094 74.839844 142.621094 C 112.097656 142.621094 142.304688 112.34375 142.304688 74.996094 C 142.304688 37.652344 112.097656 7.375 74.839844 7.375 Z M 74.839844 7.375 " clip-rule="nonzero"/></clipPath><clipPath id="1bbc158bbd"><path d="M 70 33.054688 L 126 33.054688 L 126 132.804688 L 70 132.804688 Z M 70 33.054688 " clip-rule="nonzero"/></clipPath><clipPath id="8a6f3f779d"><path d="M 24.175781 39 L 67 39 L 67 115 L 24.175781 115 Z M 24.175781 39 " clip-rule="nonzero"/></clipPath><clipPath id="250e88dc23"><path d="M 34.519531 39.125 C 33.5625 43.917969 35.964844 48.867188 39.425781 52.316406 C 42.882812 55.769531 47.308594 58.070312 51.535156 60.539062 C 55.757812 63.003906 59.976562 65.8125 62.636719 69.921875 C 64.949219 73.496094 65.886719 77.773438 66.375 82.003906 C 66.960938 87.117188 66.882812 92.5 65.246094 97.328125 C 64.0625 94.421875 62.515625 91.636719 60.753906 89.039062 C 57.292969 83.921875 53.039062 79.40625 48.800781 74.917969 C 43.847656 69.671875 38.90625 64.429688 33.953125 59.183594 C 39.074219 68.777344 47.019531 76.5 53.734375 85.066406 C 60.453125 93.625 66.175781 103.84375 65.546875 114.703125 C 65.046875 109.148438 60.535156 104.742188 55.640625 102.054688 C 50.746094 99.367188 45.253906 97.875 40.421875 95.070312 C 31.292969 89.734375 25.152344 79.625 24.671875 69.085938 C 24.195312 58.429688 29.070312 48.296875 34.519531 39.125 Z M 34.519531 39.125 " clip-rule="nonzero"/></clipPath><linearGradient x1="-1204.20996" gradientTransform="matrix(-0.0996676, 0, 0, 0.0995112, -74.346479, 33.052995)" y1="60.999989" x2="-1204.20996" gradientUnits="userSpaceOnUse" y2="820.500034" id="69547e14c5"><stop stop-opacity="1" stop-color="rgb(53.503418%, 74.87793%, 25.770569%)" offset="0"/><stop stop-opacity="1" stop-color="rgb(53.413391%, 74.772644%, 25.761414%)" offset="0.125"/><stop stop-opacity="1" stop-color="rgb(53.234863%, 74.565125%, 25.744629%)" offset="0.25"/><stop stop-opacity="1" stop-color="rgb(53.05481%, 74.356079%, 25.727844%)" offset="0.375"/><stop stop-opacity="1" stop-color="rgb(52.876282%, 74.147034%, 25.71106%)" offset="0.5"/><stop stop-opacity="1" stop-color="rgb(52.696228%, 73.939514%, 25.694275%)" offset="0.625"/><stop stop-opacity="1" stop-color="rgb(52.5177%, 73.730469%, 25.67749%)" offset="0.75"/><stop stop-opacity="1" stop-color="rgb(52.337646%, 73.522949%, 25.660706%)" offset="0.875"/><stop stop-opacity="1" stop-color="rgb(52.157593%, 73.313904%, 25.645447%)" offset="1"/></linearGradient></defs><rect x="-15" width="180" fill="#ffffff" y="-15" height="179.999997" fill-opacity="1"/><rect x="-15" width="180" fill="#ffffff" y="-15" height="179.999997" fill-opacity="1"/><g clip-path="url(#054b8e23d1)"><g clip-path="url(#836d70195f)"><path stroke-linecap="butt" transform="matrix(0.75, 0, 0, 0.75, 4.787235, 4.787236)" fill="none" stroke-linejoin="miter" d="M 93.611817 0.00243517 C 41.908689 0.00243517 0.00243617 41.908688 0.00243617 93.611816 C 0.00243617 145.309735 41.908689 187.221196 93.611817 187.221196 C 145.309736 187.221196 187.221197 145.309735 187.221197 93.611816 C 187.221197 41.908688 145.309736 0.00243517 93.611817 0.00243517 Z M 93.611817 0.00243517 " stroke="#060606" stroke-width="2" stroke-opacity="1" stroke-miterlimit="4"/></g></g><g clip-path="url(#67452518df)"><g clip-path="url(#82e2506db3)"><path stroke-linecap="butt" transform="matrix(0.75, 0, 0, 0.75, 7.374666, 7.37453)" fill="none" stroke-linejoin="miter" d="M 89.953576 0.00062724 C 40.271282 0.00062724 0.00044584 40.370421 0.00044584 90.162091 C 0.00044584 139.958969 40.271282 180.328763 89.953576 180.328763 C 139.630662 180.328763 179.906706 139.958969 179.906706 90.162091 C 179.906706 40.370421 139.630662 0.00062724 89.953576 0.00062724 Z M 89.953576 0.00062724 " stroke="#060606" stroke-width="2" stroke-opacity="1" stroke-miterlimit="4"/></g></g><g fill="#060606" fill-opacity="1"><g transform="translate(42.011856, 26.757546)"><g><path d="M -0.96875 -4.65625 L 1.5625 -1.109375 L 0.75 -0.53125 L -1.3125 -3.421875 L -2.03125 -2.921875 L -2.5 -3.578125 Z M -0.96875 -4.65625 "/></g></g></g><g fill="#060606" fill-opacity="1"><g transform="translate(45.544978, 24.295658)"><g><path d="M 1.875 -1 C 1.5625 -0.820312 1.234375 -0.738281 0.890625 -0.75 C 0.554688 -0.757812 0.238281 -0.867188 -0.0625 -1.078125 C -0.375 -1.296875 -0.644531 -1.609375 -0.875 -2.015625 C -1.113281 -2.421875 -1.25 -2.804688 -1.28125 -3.171875 C -1.3125 -3.546875 -1.25 -3.882812 -1.09375 -4.1875 C -0.9375 -4.488281 -0.703125 -4.726562 -0.390625 -4.90625 C -0.078125 -5.082031 0.242188 -5.160156 0.578125 -5.140625 C 0.910156 -5.128906 1.226562 -5.019531 1.53125 -4.8125 C 1.84375 -4.601562 2.117188 -4.296875 2.359375 -3.890625 C 2.585938 -3.484375 2.71875 -3.09375 2.75 -2.71875 C 2.78125 -2.34375 2.71875 -2.003906 2.5625 -1.703125 C 2.414062 -1.410156 2.1875 -1.175781 1.875 -1 Z M 1.4375 -1.734375 C 1.664062 -1.867188 1.789062 -2.070312 1.8125 -2.34375 C 1.832031 -2.613281 1.722656 -2.957031 1.484375 -3.375 C 1.242188 -3.789062 1 -4.054688 0.75 -4.171875 C 0.5 -4.296875 0.257812 -4.289062 0.03125 -4.15625 C -0.195312 -4.019531 -0.316406 -3.816406 -0.328125 -3.546875 C -0.347656 -3.285156 -0.238281 -2.945312 0 -2.53125 C 0.238281 -2.113281 0.476562 -1.84375 0.71875 -1.71875 C 0.96875 -1.59375 1.207031 -1.597656 1.4375 -1.734375 Z M 1.4375 -1.734375 "/></g></g></g><g fill="#060606" fill-opacity="1"><g transform="translate(50.849421, 21.348283)"><g><path d="M 1.96875 -0.765625 C 1.644531 -0.628906 1.3125 -0.582031 0.96875 -0.625 C 0.632812 -0.675781 0.328125 -0.828125 0.046875 -1.078125 C -0.222656 -1.328125 -0.453125 -1.664062 -0.640625 -2.09375 C -0.828125 -2.519531 -0.914062 -2.921875 -0.90625 -3.296875 C -0.90625 -3.671875 -0.804688 -4 -0.609375 -4.28125 C -0.421875 -4.5625 -0.164062 -4.769531 0.15625 -4.90625 C 0.488281 -5.050781 0.816406 -5.097656 1.140625 -5.046875 C 1.472656 -5.003906 1.78125 -4.859375 2.0625 -4.609375 C 2.351562 -4.359375 2.59375 -4.019531 2.78125 -3.59375 C 2.96875 -3.164062 3.050781 -2.765625 3.03125 -2.390625 C 3.019531 -2.015625 2.921875 -1.6875 2.734375 -1.40625 C 2.554688 -1.125 2.300781 -0.910156 1.96875 -0.765625 Z M 1.625 -1.5625 C 1.863281 -1.675781 2.003906 -1.863281 2.046875 -2.125 C 2.097656 -2.394531 2.03125 -2.75 1.84375 -3.1875 C 1.644531 -3.625 1.429688 -3.914062 1.203125 -4.0625 C 0.972656 -4.21875 0.738281 -4.238281 0.5 -4.125 C 0.257812 -4.019531 0.113281 -3.832031 0.0625 -3.5625 C 0.0078125 -3.289062 0.0820312 -2.9375 0.28125 -2.5 C 0.46875 -2.0625 0.675781 -1.769531 0.90625 -1.625 C 1.144531 -1.476562 1.382812 -1.457031 1.625 -1.5625 Z M 1.625 -1.5625 "/></g></g></g><g fill="#060606" fill-opacity="1"><g transform="translate(56.42287, 18.987754)"><g><path d="M 0.625 -2.28125 C 0.3125 -2.1875 0.03125 -2.210938 -0.21875 -2.359375 C -0.46875 -2.515625 -0.644531 -2.765625 -0.75 -3.109375 C -0.851562 -3.472656 -0.84375 -3.785156 -0.71875 -4.046875 C -0.59375 -4.304688 -0.375 -4.484375 -0.0625 -4.578125 C 0.238281 -4.671875 0.515625 -4.644531 0.765625 -4.5 C 1.023438 -4.351562 1.207031 -4.097656 1.3125 -3.734375 C 1.414062 -3.390625 1.398438 -3.082031 1.265625 -2.8125 C 1.140625 -2.550781 0.925781 -2.375 0.625 -2.28125 Z M 2.453125 -5.28125 L 3.15625 -5.484375 L 1.546875 -0.453125 L 0.84375 -0.25 Z M 0.484375 -2.765625 C 0.617188 -2.804688 0.703125 -2.894531 0.734375 -3.03125 C 0.773438 -3.164062 0.765625 -3.335938 0.703125 -3.546875 C 0.640625 -3.765625 0.550781 -3.921875 0.4375 -4.015625 C 0.332031 -4.117188 0.210938 -4.148438 0.078125 -4.109375 C -0.0546875 -4.066406 -0.144531 -3.972656 -0.1875 -3.828125 C -0.226562 -3.691406 -0.21875 -3.515625 -0.15625 -3.296875 C -0.09375 -3.085938 -0.00390625 -2.9375 0.109375 -2.84375 C 0.222656 -2.75 0.347656 -2.722656 0.484375 -2.765625 Z M 4.0625 -1.15625 C 3.863281 -1.101562 3.664062 -1.097656 3.46875 -1.140625 C 3.28125 -1.179688 3.117188 -1.28125 2.984375 -1.4375 C 2.847656 -1.59375 2.75 -1.785156 2.6875 -2.015625 C 2.613281 -2.242188 2.59375 -2.453125 2.625 -2.640625 C 2.65625 -2.835938 2.738281 -3.007812 2.875 -3.15625 C 3.007812 -3.3125 3.175781 -3.414062 3.375 -3.46875 C 3.664062 -3.5625 3.941406 -3.53125 4.203125 -3.375 C 4.460938 -3.21875 4.644531 -2.96875 4.75 -2.625 C 4.851562 -2.269531 4.835938 -1.957031 4.703125 -1.6875 C 4.566406 -1.425781 4.351562 -1.25 4.0625 -1.15625 Z M 3.90625 -1.65625 C 4.03125 -1.695312 4.113281 -1.785156 4.15625 -1.921875 C 4.207031 -2.054688 4.203125 -2.234375 4.140625 -2.453125 C 4.078125 -2.660156 3.988281 -2.804688 3.875 -2.890625 C 3.757812 -2.984375 3.640625 -3.007812 3.515625 -2.96875 C 3.378906 -2.9375 3.289062 -2.851562 3.25 -2.71875 C 3.207031 -2.582031 3.21875 -2.40625 3.28125 -2.1875 C 3.34375 -1.96875 3.425781 -1.816406 3.53125 -1.734375 C 3.644531 -1.648438 3.769531 -1.625 3.90625 -1.65625 Z M 3.90625 -1.65625 "/></g></g></g><g fill="#060606" fill-opacity="1"><g transform="translate(63.484425, 17.069949)"><g/></g></g><g fill="#060606" fill-opacity="1"><g transform="translate(67.047554, 16.395139)"><g><path d="M 4.09375 -4.765625 L 4.5 -0.421875 L 3.671875 -0.34375 L 1.265625 -2.78125 L 1.515625 -0.140625 L 0.515625 -0.046875 L 0.109375 -4.390625 L 0.953125 -4.46875 L 3.34375 -2.046875 L 3.09375 -4.671875 Z M 4.09375 -4.765625 "/></g></g></g><g fill="#060606" fill-opacity="1"><g transform="translate(73.880745, 15.872755)"><g><path d="M 3.421875 -0.84375 L 1.390625 -0.890625 L 0.984375 0.03125 L -0.0625 0 L 2.015625 -4.296875 L 3.015625 -4.28125 L 4.84375 0.140625 L 3.78125 0.109375 Z M 3.125 -1.609375 L 2.46875 -3.3125 L 1.734375 -1.65625 Z M 3.125 -1.609375 "/></g></g></g><g fill="#060606" fill-opacity="1"><g transform="translate(80.480128, 16.196146)"><g><path d="M 1.90625 -3.3125 L 0.53125 -3.515625 L 0.65625 -4.3125 L 4.421875 -3.765625 L 4.296875 -2.96875 L 2.90625 -3.171875 L 2.40625 0.34375 L 1.40625 0.203125 Z M 1.90625 -3.3125 "/></g></g></g><g fill="#060606" fill-opacity="1"><g transform="translate(86.0969, 17.074811)"><g><path d="M 2.359375 0.703125 C 1.753906 0.546875 1.328125 0.257812 1.078125 -0.15625 C 0.828125 -0.582031 0.785156 -1.109375 0.953125 -1.734375 L 1.578125 -4.09375 L 2.546875 -3.84375 L 1.9375 -1.515625 C 1.738281 -0.753906 1.957031 -0.289062 2.59375 -0.125 C 2.894531 -0.0390625 3.148438 -0.0703125 3.359375 -0.21875 C 3.566406 -0.363281 3.722656 -0.628906 3.828125 -1.015625 L 4.4375 -3.34375 L 5.40625 -3.09375 L 4.78125 -0.734375 C 4.613281 -0.109375 4.316406 0.320312 3.890625 0.5625 C 3.472656 0.8125 2.960938 0.859375 2.359375 0.703125 Z M 2.359375 0.703125 "/></g></g></g><g fill="#060606" fill-opacity="1"><g transform="translate(92.578908, 18.895546)"><g><path d="M 3.0625 1.21875 L 2.734375 -0.234375 L 2.6875 -0.25 L 1.875 -0.578125 L 1.421875 0.5625 L 0.484375 0.1875 L 2.09375 -3.859375 L 3.84375 -3.15625 C 4.207031 -3.019531 4.5 -2.84375 4.71875 -2.625 C 4.9375 -2.40625 5.070312 -2.15625 5.125 -1.875 C 5.175781 -1.59375 5.140625 -1.304688 5.015625 -1.015625 C 4.898438 -0.710938 4.722656 -0.476562 4.484375 -0.3125 C 4.253906 -0.15625 3.988281 -0.0703125 3.6875 -0.0625 L 4.0625 1.609375 Z M 4.0625 -1.390625 C 4.15625 -1.609375 4.148438 -1.804688 4.046875 -1.984375 C 3.953125 -2.171875 3.757812 -2.320312 3.46875 -2.4375 L 2.71875 -2.734375 L 2.15625 -1.3125 L 2.90625 -1.015625 C 3.195312 -0.898438 3.441406 -0.875 3.640625 -0.9375 C 3.835938 -1.007812 3.976562 -1.160156 4.0625 -1.390625 Z M 4.0625 -1.390625 "/></g></g></g><g fill="#060606" fill-opacity="1"><g transform="translate(98.496916, 21.345386)"><g><path d="M 3.4375 0.78125 L 1.65625 -0.1875 L 0.859375 0.46875 L -0.0625 -0.03125 L 3.734375 -2.921875 L 4.625 -2.453125 L 4.265625 2.296875 L 3.328125 1.796875 Z M 3.515625 -0.03125 L 3.703125 -1.84375 L 2.296875 -0.703125 Z M 3.515625 -0.03125 "/></g></g></g><g fill="#060606" fill-opacity="1"><g transform="translate(104.246912, 24.602559)"><g><path d="M 2.90625 -3.28125 L 3.734375 -2.703125 L 1.71875 0.1875 L 3.515625 1.4375 L 3.046875 2.125 L 0.421875 0.296875 Z M 2.90625 -3.28125 "/></g></g></g><g clip-path="url(#1bbc158bbd)"><path fill="#006838" d="M 112.519531 33.054688 C 113.785156 39.382812 110.617188 45.910156 106.050781 50.46875 C 101.488281 55.035156 95.644531 58.058594 90.074219 61.3125 C 84.492188 64.566406 78.921875 68.28125 75.425781 73.703125 C 72.375 78.421875 71.128906 84.074219 70.492188 89.644531 C 69.691406 96.410156 69.800781 103.507812 71.957031 109.875 C 73.519531 106.035156 75.5625 102.363281 77.886719 98.929688 C 82.449219 92.171875 88.070312 86.210938 93.664062 80.28125 C 100.203125 73.355469 106.730469 66.4375 113.269531 59.511719 C 106.5 72.171875 96.015625 82.378906 87.15625 93.675781 C 78.292969 104.980469 70.738281 118.472656 71.566406 132.804688 C 72.222656 125.46875 78.183594 119.648438 84.652344 116.105469 C 91.121094 112.5625 98.367188 110.582031 104.734375 106.878906 C 116.785156 99.875 124.890625 86.519531 125.515625 72.609375 C 126.15625 58.539062 119.726562 45.152344 112.519531 33.054688 Z M 112.519531 33.054688 " fill-opacity="1" fill-rule="nonzero"/></g><g clip-path="url(#8a6f3f779d)"><g clip-path="url(#250e88dc23)"><path fill="url(#69547e14c5)" d="M 66.960938 39.125 L 66.960938 114.703125 L 24.195312 114.703125 L 24.195312 39.125 Z M 66.960938 39.125 " fill-rule="nonzero"/></g></g></svg>