<svg xmlns="http://www.w3.org/2000/svg" xmlns:xlink="http://www.w3.org/1999/xlink" width="200" zoomAndPan="magnify" viewBox="0 0 150 149.999998" height="200" preserveAspectRatio="xMidYMid meet" version="1.0"><defs><g/><clipPath id="2af93ab5d1"><path d="M 4.789062 4.789062 L 145.039062 4.789062 L 145.039062 145.039062 L 4.789062 145.039062 Z M 4.789062 4.789062 " clip-rule="nonzero"/></clipPath><clipPath id="79a8f831c1"><path d="M 74.996094 4.789062 C 36.21875 4.789062 4.789062 36.21875 4.789062 74.996094 C 4.789062 113.769531 36.21875 145.203125 74.996094 145.203125 C 113.769531 145.203125 145.203125 113.769531 145.203125 74.996094 C 145.203125 36.21875 113.769531 4.789062 74.996094 4.789062 Z M 74.996094 4.789062 " clip-rule="nonzero"/></clipPath><clipPath id="3916763eeb"><path d="M 7.375 7.375 L 142.375 7.375 L 142.375 142.375 L 7.375 142.375 Z M 7.375 7.375 " clip-rule="nonzero"/></clipPath><clipPath id="e1f5c8bb0f"><path d="M 74.839844 7.375 C 37.578125 7.375 7.375 37.652344 7.375 74.996094 C 7.375 112.34375 37.578125 142.621094 74.839844 142.621094 C 112.097656 142.621094 142.304688 112.34375 142.304688 74.996094 C 142.304688 37.652344 112.097656 7.375 74.839844 7.375 Z M 74.839844 7.375 " clip-rule="nonzero"/></clipPath><clipPath id="7256e36668"><path d="M 127 60 L 133.125 60 L 133.125 62 L 127 62 Z M 127 60 " clip-rule="nonzero"/></clipPath><clipPath id="2c7de5e063"><path d="M 23.625 51.574219 L 72 51.574219 L 72 107.824219 L 23.625 107.824219 Z M 23.625 51.574219 " clip-rule="nonzero"/></clipPath></defs><rect x="-15" width="180" fill="#ffffff" y="-15" height="179.999997" fill-opacity="1"/><rect x="-15" width="180" fill="#ffffff" y="-15" height="179.999997" fill-opacity="1"/><g clip-path="url(#2af93ab5d1)"><g clip-path="url(#79a8f831c1)"><path stroke-linecap="butt" transform="matrix(0.75, 0, 0, 0.75, 4.787235, 4.787236)" fill="none" stroke-linejoin="miter" d="M 93.611817 0.00243517 C 41.908689 0.00243517 0.00243617 41.908688 0.00243617 93.611816 C 0.00243617 145.309735 41.908689 187.221196 93.611817 187.221196 C 145.309736 187.221196 187.221197 145.309735 187.221197 93.611816 C 187.221197 41.908688 145.309736 0.00243517 93.611817 0.00243517 Z M 93.611817 0.00243517 " stroke="#060606" stroke-width="2" stroke-opacity="1" stroke-miterlimit="4"/></g></g><g clip-path="url(#3916763eeb)"><g clip-path="url(#e1f5c8bb0f)"><path stroke-linecap="butt" transform="matrix(0.75, 0, 0, 0.75, 7.374666, 7.37453)" fill="none" stroke-linejoin="miter" d="M 89.953576 0.00062724 C 40.271282 0.00062724 0.00044584 40.370421 0.00044584 90.162091 C 0.00044584 139.958969 40.271282 180.328763 89.953576 180.328763 C 139.630662 180.328763 179.906706 139.958969 179.906706 90.162091 C 179.906706 40.370421 139.630662 0.00062724 89.953576 0.00062724 Z M 89.953576 0.00062724 " stroke="#060606" stroke-width="2" stroke-opacity="1" stroke-miterlimit="4"/></g></g><path fill="#25bf6a" d="M 55.085938 83.269531 L 53.621094 99.71875 C 53.773438 100.550781 54.496094 101.144531 55.328125 101.167969 L 115.140625 102.046875 L 118.773438 81.664062 Z M 55.085938 83.269531 " fill-opacity="1" fill-rule="nonzero"/><path fill="#21a65c" d="M 113.457031 99.9375 L 56.160156 101.167969 L 115.140625 102.046875 L 118.773438 81.664062 Z M 113.457031 99.9375 " fill-opacity="1" fill-rule="nonzero"/><g clip-path="url(#7256e36668)"><path fill="#080808" d="M 131.289062 60.25 L 132.359375 60.117188 C 132.402344 60.117188 132.46875 60.140625 132.492188 60.183594 L 133.058594 60.976562 C 133.125 61.0625 133.058594 61.195312 132.949219 61.21875 L 127.941406 61.546875 L 131.242188 60.273438 C 131.242188 60.25 131.265625 60.25 131.289062 60.25 Z M 131.289062 60.25 " fill-opacity="1" fill-rule="nonzero"/></g><path fill="#080808" d="M 127.523438 56.359375 L 128.203125 55.480469 C 128.226562 55.433594 128.269531 55.433594 128.3125 55.433594 L 129.339844 55.609375 C 129.429688 55.632812 129.472656 55.742188 129.40625 55.808594 L 125.730469 59.855469 Z M 127.523438 56.359375 " fill-opacity="1" fill-rule="nonzero"/><path fill="#080808" d="M 124.199219 54.007812 L 124.242188 52.929688 C 124.242188 52.863281 124.222656 52.820312 124.15625 52.773438 L 123.367188 52.292969 C 123.257812 52.226562 123.105469 52.3125 123.128906 52.445312 L 123.519531 57.128906 L 124.175781 54.007812 C 124.199219 54.027344 124.199219 54.007812 124.199219 54.007812 Z M 124.199219 54.007812 " fill-opacity="1" fill-rule="nonzero"/><path fill="#212121" d="M 123.585938 61.328125 L 63.378906 66.144531 L 55.109375 83.269531 L 120.457031 81.621094 C 120.941406 81.601562 121.332031 81.269531 121.421875 80.808594 L 124.679688 62.515625 C 124.746094 61.855469 124.222656 61.285156 123.585938 61.328125 Z M 123.585938 61.328125 " fill-opacity="1" fill-rule="nonzero"/><path fill="#080808" d="M 92.234375 61.503906 C 91.996094 61.503906 91.820312 61.328125 91.796875 61.085938 C 91.777344 60.84375 91.972656 60.625 92.214844 60.601562 L 103.851562 59.65625 C 104.09375 59.636719 104.3125 59.832031 104.335938 60.074219 C 104.355469 60.316406 104.160156 60.535156 103.917969 60.558594 L 92.277344 61.503906 C 92.277344 61.503906 92.257812 61.503906 92.234375 61.503906 Z M 92.234375 61.503906 " fill-opacity="1" fill-rule="nonzero"/><path fill="#080808" d="M 113.761719 104.972656 C 113.523438 104.972656 113.304688 104.753906 113.324219 104.511719 C 113.324219 104.269531 113.542969 104.046875 113.785156 104.070312 L 116.5625 104.113281 L 117.066406 101.257812 C 117.109375 101.015625 117.351562 100.839844 117.59375 100.882812 C 117.832031 100.925781 118.007812 101.167969 117.964844 101.410156 L 117.308594 105.039062 Z M 113.761719 104.972656 " fill-opacity="1" fill-rule="nonzero"/><path fill="#080808" d="M 84.839844 104.09375 C 84.601562 104.09375 84.382812 103.871094 84.402344 103.628906 C 84.402344 103.390625 84.621094 103.167969 84.863281 103.191406 L 95.605469 103.34375 C 95.84375 103.34375 96.0625 103.566406 96.042969 103.808594 C 96.042969 104.046875 95.824219 104.269531 95.582031 104.246094 Z M 84.839844 104.09375 " fill-opacity="1" fill-rule="nonzero"/><path fill="#ffffff" d="M 82.652344 78.105469 L 82.367188 71.683594 L 80.792969 73.023438 L 79.65625 71.597656 L 82.410156 69.351562 L 84.292969 69.265625 L 84.6875 78.015625 Z M 82.652344 78.105469 " fill-opacity="1" fill-rule="nonzero"/><path fill="#ffffff" d="M 94.292969 73.179688 C 94.3125 73.792969 94.292969 74.386719 94.183594 74.960938 C 94.09375 75.53125 93.921875 76.035156 93.65625 76.453125 C 93.417969 76.894531 93.066406 77.246094 92.652344 77.511719 C 92.234375 77.773438 91.710938 77.929688 91.097656 77.949219 C 90.484375 77.972656 89.960938 77.882812 89.5 77.640625 C 89.0625 77.398438 88.691406 77.09375 88.386719 76.675781 C 88.101562 76.257812 87.859375 75.773438 87.726562 75.222656 C 87.574219 74.675781 87.488281 74.082031 87.464844 73.464844 C 87.445312 72.847656 87.464844 72.253906 87.574219 71.707031 C 87.664062 71.132812 87.859375 70.648438 88.101562 70.210938 C 88.363281 69.792969 88.691406 69.441406 89.128906 69.175781 C 89.542969 68.914062 90.070312 68.757812 90.683594 68.738281 C 91.292969 68.714844 91.820312 68.804688 92.257812 69.046875 C 92.695312 69.265625 93.066406 69.59375 93.351562 69.992188 C 93.636719 70.386719 93.855469 70.871094 94.007812 71.417969 C 94.160156 71.96875 94.25 72.542969 94.292969 73.179688 Z M 92.167969 73.265625 C 92.148438 73.003906 92.125 72.695312 92.082031 72.367188 C 92.039062 72.035156 91.949219 71.726562 91.863281 71.464844 C 91.753906 71.179688 91.621094 70.957031 91.449219 70.761719 C 91.273438 70.585938 91.054688 70.496094 90.769531 70.496094 C 90.507812 70.519531 90.289062 70.605469 90.113281 70.828125 C 89.960938 71.023438 89.828125 71.265625 89.742188 71.550781 C 89.652344 71.835938 89.609375 72.144531 89.589844 72.476562 C 89.566406 72.804688 89.566406 73.113281 89.589844 73.375 C 89.609375 73.664062 89.632812 73.96875 89.675781 74.300781 C 89.71875 74.628906 89.808594 74.9375 89.917969 75.222656 C 90.027344 75.507812 90.15625 75.730469 90.355469 75.925781 C 90.527344 76.101562 90.769531 76.191406 91.03125 76.191406 C 91.292969 76.167969 91.511719 76.082031 91.667969 75.859375 C 91.820312 75.664062 91.949219 75.421875 92.015625 75.136719 C 92.105469 74.851562 92.148438 74.542969 92.167969 74.191406 C 92.191406 73.859375 92.191406 73.550781 92.167969 73.265625 Z M 92.167969 73.265625 " fill-opacity="1" fill-rule="nonzero"/><path fill="#ffffff" d="M 102.234375 72.804688 C 102.253906 73.421875 102.234375 74.015625 102.125 74.585938 C 102.035156 75.15625 101.863281 75.664062 101.597656 76.082031 C 101.359375 76.519531 101.007812 76.871094 100.59375 77.136719 C 100.175781 77.398438 99.652344 77.554688 99.039062 77.578125 C 98.425781 77.597656 97.902344 77.511719 97.441406 77.269531 C 97.003906 77.027344 96.632812 76.71875 96.328125 76.300781 C 96.042969 75.882812 95.800781 75.398438 95.671875 74.851562 C 95.515625 74.300781 95.429688 73.707031 95.40625 73.089844 C 95.386719 72.476562 95.40625 71.882812 95.515625 71.332031 C 95.605469 70.761719 95.800781 70.277344 96.042969 69.835938 C 96.304688 69.417969 96.632812 69.066406 97.070312 68.804688 C 97.484375 68.539062 98.011719 68.386719 98.625 68.363281 C 99.238281 68.339844 99.761719 68.429688 100.199219 68.671875 C 100.636719 68.890625 101.007812 69.222656 101.292969 69.617188 C 101.578125 70.011719 101.796875 70.496094 101.949219 71.046875 C 102.101562 71.597656 102.191406 72.1875 102.234375 72.804688 Z M 100.113281 72.894531 C 100.089844 72.628906 100.066406 72.320312 100.023438 71.992188 C 99.980469 71.660156 99.894531 71.355469 99.804688 71.089844 C 99.695312 70.804688 99.566406 70.585938 99.390625 70.386719 C 99.214844 70.210938 98.996094 70.121094 98.710938 70.121094 C 98.449219 70.144531 98.230469 70.234375 98.054688 70.453125 C 97.902344 70.648438 97.769531 70.890625 97.683594 71.179688 C 97.59375 71.464844 97.550781 71.773438 97.53125 72.101562 C 97.507812 72.429688 97.507812 72.738281 97.53125 73.003906 C 97.550781 73.289062 97.574219 73.597656 97.617188 73.925781 C 97.660156 74.257812 97.75 74.5625 97.859375 74.851562 C 97.96875 75.136719 98.097656 75.355469 98.296875 75.554688 C 98.46875 75.730469 98.710938 75.816406 98.972656 75.816406 C 99.238281 75.796875 99.457031 75.707031 99.609375 75.488281 C 99.761719 75.289062 99.894531 75.046875 99.957031 74.761719 C 100.046875 74.476562 100.089844 74.167969 100.113281 73.816406 C 100.113281 73.488281 100.132812 73.179688 100.113281 72.894531 Z M 100.113281 72.894531 " fill-opacity="1" fill-rule="nonzero"/><path fill="#ffffff" d="M 107.726562 70.386719 C 107.746094 70.714844 107.679688 71.003906 107.570312 71.308594 C 107.460938 71.597656 107.308594 71.859375 107.113281 72.078125 C 106.914062 72.300781 106.675781 72.476562 106.390625 72.605469 C 106.105469 72.738281 105.800781 72.828125 105.492188 72.828125 C 105.164062 72.847656 104.859375 72.78125 104.574219 72.671875 C 104.289062 72.5625 104.027344 72.410156 103.808594 72.210938 C 103.589844 72.011719 103.414062 71.773438 103.285156 71.484375 C 103.152344 71.199219 103.066406 70.914062 103.066406 70.585938 C 103.042969 70.253906 103.085938 69.945312 103.21875 69.660156 C 103.328125 69.375 103.480469 69.109375 103.675781 68.890625 C 103.875 68.671875 104.113281 68.496094 104.398438 68.363281 C 104.683594 68.230469 104.992188 68.164062 105.296875 68.144531 C 105.625 68.121094 105.929688 68.164062 106.214844 68.277344 C 106.5 68.386719 106.761719 68.539062 106.980469 68.738281 C 107.199219 68.933594 107.375 69.175781 107.507812 69.464844 C 107.636719 69.75 107.703125 70.054688 107.726562 70.386719 Z M 106.347656 70.453125 C 106.324219 70.1875 106.238281 69.96875 106.039062 69.792969 C 105.84375 69.617188 105.601562 69.527344 105.363281 69.527344 C 105.101562 69.550781 104.882812 69.640625 104.707031 69.835938 C 104.53125 70.035156 104.445312 70.277344 104.445312 70.519531 C 104.464844 70.78125 104.554688 71.003906 104.75 71.179688 C 104.945312 71.355469 105.164062 71.441406 105.429688 71.417969 C 105.691406 71.398438 105.910156 71.308594 106.085938 71.113281 C 106.28125 70.9375 106.347656 70.714844 106.347656 70.453125 Z M 106.652344 77.421875 L 105.539062 76.9375 L 110.199219 67.683594 L 111.355469 68.1875 Z M 113.828125 74.496094 C 113.851562 74.828125 113.785156 75.113281 113.675781 75.421875 C 113.566406 75.707031 113.414062 75.972656 113.214844 76.191406 C 113.019531 76.410156 112.777344 76.585938 112.496094 76.71875 C 112.210938 76.851562 111.902344 76.9375 111.597656 76.9375 C 111.269531 76.960938 110.964844 76.894531 110.679688 76.785156 C 110.394531 76.675781 110.132812 76.519531 109.914062 76.324219 C 109.695312 76.125 109.519531 75.882812 109.386719 75.597656 C 109.257812 75.3125 109.167969 75.027344 109.167969 74.695312 C 109.148438 74.367188 109.210938 74.082031 109.320312 73.773438 C 109.429688 73.488281 109.585938 73.222656 109.78125 73.003906 C 109.980469 72.78125 110.21875 72.605469 110.503906 72.476562 C 110.789062 72.34375 111.09375 72.253906 111.402344 72.253906 C 111.730469 72.234375 112.035156 72.300781 112.320312 72.410156 C 112.605469 72.519531 112.867188 72.671875 113.085938 72.871094 C 113.304688 73.070312 113.480469 73.3125 113.609375 73.597656 C 113.71875 73.859375 113.808594 74.167969 113.828125 74.496094 Z M 112.449219 74.5625 C 112.449219 74.433594 112.40625 74.300781 112.363281 74.191406 C 112.296875 74.082031 112.230469 73.96875 112.144531 73.882812 C 112.058594 73.792969 111.949219 73.726562 111.839844 73.683594 C 111.730469 73.640625 111.597656 73.617188 111.464844 73.617188 C 111.203125 73.640625 110.984375 73.726562 110.808594 73.925781 C 110.636719 74.125 110.546875 74.367188 110.546875 74.609375 C 110.570312 74.871094 110.65625 75.089844 110.855469 75.265625 C 111.050781 75.445312 111.269531 75.53125 111.53125 75.507812 C 111.664062 75.507812 111.792969 75.464844 111.902344 75.421875 C 112.011719 75.378906 112.121094 75.289062 112.1875 75.203125 C 112.277344 75.113281 112.339844 75.003906 112.386719 74.894531 C 112.429688 74.804688 112.449219 74.695312 112.449219 74.5625 Z M 112.449219 74.5625 " fill-opacity="1" fill-rule="nonzero"/><path fill="#212121" d="M 80.617188 90.679688 C 80.488281 90.503906 80.289062 90.371094 80.070312 90.285156 C 79.851562 90.195312 79.632812 90.152344 79.4375 90.152344 C 79.328125 90.152344 79.21875 90.175781 79.128906 90.195312 C 79.019531 90.21875 78.933594 90.261719 78.847656 90.308594 C 78.757812 90.351562 78.691406 90.4375 78.628906 90.503906 C 78.5625 90.59375 78.539062 90.703125 78.539062 90.835938 C 78.539062 90.945312 78.5625 91.03125 78.605469 91.097656 C 78.648438 91.164062 78.714844 91.230469 78.800781 91.296875 C 78.890625 91.339844 79 91.40625 79.128906 91.429688 C 79.261719 91.472656 79.394531 91.515625 79.546875 91.558594 C 79.765625 91.625 80.003906 91.691406 80.246094 91.78125 C 80.488281 91.867188 80.707031 91.976562 80.902344 92.109375 C 81.097656 92.242188 81.273438 92.4375 81.40625 92.636719 C 81.535156 92.855469 81.601562 93.121094 81.625 93.449219 C 81.625 93.824219 81.582031 94.15625 81.449219 94.417969 C 81.316406 94.703125 81.144531 94.925781 80.925781 95.101562 C 80.707031 95.277344 80.441406 95.429688 80.136719 95.519531 C 79.832031 95.605469 79.523438 95.671875 79.21875 95.671875 C 78.757812 95.695312 78.300781 95.605469 77.863281 95.472656 C 77.425781 95.320312 77.050781 95.101562 76.765625 94.8125 L 77.753906 93.738281 C 77.90625 93.933594 78.125 94.089844 78.386719 94.21875 C 78.648438 94.351562 78.910156 94.394531 79.175781 94.394531 C 79.285156 94.394531 79.394531 94.375 79.503906 94.351562 C 79.613281 94.332031 79.699219 94.285156 79.785156 94.21875 C 79.875 94.15625 79.941406 94.089844 79.984375 94 C 80.027344 93.914062 80.050781 93.800781 80.050781 93.671875 C 80.050781 93.539062 80.003906 93.449219 79.941406 93.363281 C 79.875 93.273438 79.785156 93.210938 79.675781 93.144531 C 79.566406 93.078125 79.414062 93.011719 79.261719 92.96875 C 79.085938 92.921875 78.890625 92.855469 78.691406 92.792969 C 78.472656 92.726562 78.277344 92.660156 78.082031 92.570312 C 77.882812 92.484375 77.707031 92.375 77.535156 92.242188 C 77.378906 92.109375 77.25 91.933594 77.140625 91.734375 C 77.03125 91.539062 76.988281 91.273438 76.988281 90.988281 C 76.988281 90.636719 77.03125 90.308594 77.183594 90.066406 C 77.316406 89.800781 77.511719 89.582031 77.753906 89.40625 C 77.992188 89.230469 78.253906 89.097656 78.539062 89.007812 C 78.847656 88.921875 79.128906 88.878906 79.4375 88.878906 C 79.808594 88.878906 80.179688 88.921875 80.550781 89.054688 C 80.945312 89.183594 81.273438 89.359375 81.582031 89.625 Z M 80.617188 90.679688 " fill-opacity="1" fill-rule="nonzero"/><path fill="#212121" d="M 82.742188 95.429688 L 82.566406 88.921875 L 86.917969 88.789062 L 86.960938 90.109375 L 84.117188 90.195312 L 84.164062 91.429688 L 86.851562 91.363281 L 86.898438 92.617188 L 84.207031 92.679688 L 84.25 94.023438 L 87.246094 93.933594 L 87.289062 95.277344 Z M 82.742188 95.429688 " fill-opacity="1" fill-rule="nonzero"/><path fill="#212121" d="M 92.914062 95.035156 C 92.496094 95.230469 92.015625 95.339844 91.46875 95.363281 C 90.964844 95.386719 90.507812 95.296875 90.070312 95.144531 C 89.632812 94.988281 89.261719 94.769531 88.953125 94.460938 C 88.625 94.175781 88.386719 93.800781 88.1875 93.386719 C 87.992188 92.96875 87.902344 92.503906 87.882812 92 C 87.859375 91.472656 87.949219 91.011719 88.121094 90.570312 C 88.296875 90.152344 88.539062 89.777344 88.84375 89.472656 C 89.152344 89.164062 89.523438 88.921875 89.9375 88.746094 C 90.355469 88.570312 90.8125 88.480469 91.316406 88.460938 C 91.777344 88.4375 92.234375 88.527344 92.671875 88.65625 C 93.109375 88.8125 93.484375 89.03125 93.765625 89.339844 L 92.738281 90.4375 C 92.585938 90.242188 92.386719 90.085938 92.148438 90 C 91.90625 89.910156 91.667969 89.867188 91.402344 89.867188 C 91.121094 89.867188 90.878906 89.933594 90.660156 90.042969 C 90.441406 90.152344 90.246094 90.285156 90.089844 90.484375 C 89.9375 90.660156 89.808594 90.878906 89.71875 91.121094 C 89.632812 91.363281 89.589844 91.625 89.609375 91.910156 C 89.609375 92.199219 89.675781 92.484375 89.761719 92.726562 C 89.851562 92.96875 90.003906 93.164062 90.15625 93.339844 C 90.332031 93.515625 90.527344 93.648438 90.746094 93.738281 C 90.964844 93.824219 91.230469 93.867188 91.492188 93.867188 C 91.796875 93.867188 92.082031 93.78125 92.300781 93.671875 C 92.519531 93.539062 92.714844 93.386719 92.847656 93.1875 L 93.964844 94.175781 C 93.679688 94.550781 93.328125 94.835938 92.914062 95.035156 Z M 92.914062 95.035156 " fill-opacity="1" fill-rule="nonzero"/><path fill="#212121" d="M 99.894531 93.5625 C 99.761719 93.890625 99.585938 94.175781 99.347656 94.394531 C 99.105469 94.636719 98.820312 94.8125 98.46875 94.96875 C 98.121094 95.101562 97.75 95.1875 97.332031 95.1875 C 96.917969 95.210938 96.523438 95.144531 96.171875 95.035156 C 95.824219 94.925781 95.539062 94.75 95.296875 94.527344 C 95.058594 94.308594 94.859375 94.042969 94.730469 93.714844 C 94.597656 93.40625 94.511719 93.03125 94.511719 92.660156 L 94.402344 88.613281 L 95.953125 88.570312 L 96.0625 92.484375 C 96.0625 92.660156 96.085938 92.835938 96.152344 92.988281 C 96.195312 93.144531 96.28125 93.296875 96.371094 93.40625 C 96.457031 93.539062 96.589844 93.625 96.765625 93.691406 C 96.917969 93.757812 97.113281 93.800781 97.332031 93.78125 C 97.550781 93.78125 97.75 93.738281 97.902344 93.648438 C 98.054688 93.5625 98.1875 93.472656 98.273438 93.339844 C 98.359375 93.207031 98.425781 93.078125 98.46875 92.902344 C 98.515625 92.746094 98.535156 92.570312 98.515625 92.394531 L 98.40625 88.480469 L 99.957031 88.4375 L 100.066406 92.484375 C 100.066406 92.878906 100.023438 93.230469 99.894531 93.5625 Z M 99.894531 93.5625 " fill-opacity="1" fill-rule="nonzero"/><path fill="#212121" d="M 104.859375 94.8125 L 103.371094 92.261719 L 102.847656 92.285156 L 102.910156 94.859375 L 101.378906 94.902344 L 101.207031 88.394531 L 103.675781 88.328125 C 103.984375 88.328125 104.289062 88.351562 104.597656 88.394531 C 104.902344 88.460938 105.164062 88.546875 105.40625 88.703125 C 105.648438 88.855469 105.84375 89.054688 105.976562 89.296875 C 106.128906 89.539062 106.195312 89.84375 106.214844 90.21875 C 106.238281 90.660156 106.128906 91.03125 105.886719 91.339844 C 105.667969 91.648438 105.339844 91.867188 104.925781 92.023438 L 106.695312 94.75 Z M 104.664062 90.308594 C 104.664062 90.152344 104.617188 90.019531 104.554688 89.933594 C 104.488281 89.84375 104.398438 89.777344 104.289062 89.714844 C 104.179688 89.667969 104.070312 89.625 103.941406 89.625 C 103.808594 89.601562 103.699219 89.601562 103.566406 89.601562 L 102.738281 89.625 L 102.78125 91.140625 L 103.523438 91.121094 C 103.65625 91.121094 103.785156 91.097656 103.917969 91.078125 C 104.050781 91.054688 104.179688 91.011719 104.289062 90.945312 C 104.398438 90.878906 104.488281 90.8125 104.554688 90.703125 C 104.640625 90.59375 104.664062 90.460938 104.664062 90.308594 Z M 104.664062 90.308594 " fill-opacity="1" fill-rule="nonzero"/><path fill="#212121" d="M 107.441406 94.75 L 107.265625 88.238281 L 111.621094 88.109375 L 111.664062 89.425781 L 108.820312 89.515625 L 108.863281 90.746094 L 111.554688 90.679688 L 111.597656 91.933594 L 108.90625 92 L 108.949219 93.339844 L 111.949219 93.253906 L 111.992188 94.59375 Z M 107.441406 94.75 " fill-opacity="1" fill-rule="nonzero"/><path fill="#000000" d="M 69.765625 84.855469 L 72.414062 65.417969 L 70.621094 65.550781 L 46.074219 65.8125 L 57.273438 101.101562 L 71.933594 101.386719 L 74.054688 101.410156 C 75.300781 99.585938 76.023438 97.386719 76.023438 95.011719 C 76.046875 90.703125 73.574219 86.765625 69.765625 84.855469 Z M 69.765625 84.855469 " fill-opacity="0.2" fill-rule="nonzero"/><g clip-path="url(#2c7de5e063)"><path fill="#25bf6a" d="M 71.121094 56.734375 C 70.730469 56.292969 70.183594 56.027344 69.589844 56.027344 C 69.394531 56.027344 69.199219 56.050781 69.023438 56.117188 C 68.914062 56.160156 68.804688 56.183594 68.671875 56.203125 C 66.8125 56.710938 64.867188 56.972656 62.917969 56.972656 C 57.972656 56.972656 53.074219 55.257812 49.136719 52.136719 C 48.71875 51.808594 48.171875 51.609375 47.648438 51.609375 C 47.101562 51.609375 46.574219 51.785156 46.160156 52.136719 C 42.222656 55.257812 37.320312 56.953125 32.375 56.972656 C 30.429688 56.972656 28.503906 56.710938 26.644531 56.203125 C 26.535156 56.183594 26.425781 56.140625 26.292969 56.117188 C 26.097656 56.074219 25.921875 56.027344 25.726562 56.027344 C 25.136719 56.027344 24.589844 56.292969 24.195312 56.734375 C 23.800781 57.171875 23.625 57.765625 23.714844 58.335938 L 27.386719 85.910156 C 27.671875 88.304688 28.394531 90.570312 29.554688 92.679688 C 30.734375 94.792969 32.289062 96.617188 34.191406 98.113281 L 45.570312 107.0625 C 46.160156 107.523438 46.882812 107.765625 47.625 107.785156 L 47.667969 107.785156 C 48.414062 107.785156 49.136719 107.523438 49.703125 107.0625 L 61.082031 98.113281 C 62.984375 96.617188 64.539062 94.792969 65.71875 92.679688 C 66.878906 90.570312 67.621094 88.304688 67.886719 85.910156 L 71.605469 58.335938 C 71.671875 57.765625 71.496094 57.171875 71.121094 56.734375 Z M 71.121094 56.734375 " fill-opacity="1" fill-rule="nonzero"/></g><path fill="#22ad60" d="M 36.378906 95.296875 C 33.339844 92.902344 31.347656 89.339844 30.910156 85.492188 L 30.910156 85.449219 L 27.519531 60.074219 C 29.117188 60.382812 30.734375 60.558594 32.375 60.558594 C 37.824219 60.558594 43.226562 58.777344 47.648438 55.5 C 52.089844 58.777344 57.472656 60.558594 62.917969 60.558594 C 64.558594 60.558594 66.179688 60.40625 67.777344 60.074219 L 64.382812 85.46875 L 64.382812 85.492188 C 63.945312 89.339844 61.957031 92.921875 58.914062 95.296875 L 47.910156 103.9375 C 47.757812 104.070312 47.539062 104.070312 47.386719 103.9375 Z M 36.378906 95.296875 " fill-opacity="1" fill-rule="nonzero"/><path fill="#25bf6a" d="M 37.210938 94.21875 C 34.457031 92.066406 32.660156 88.8125 32.246094 85.335938 L 32.246094 85.273438 L 29.117188 61.722656 C 30.1875 61.855469 31.28125 61.921875 32.375 61.921875 C 37.757812 61.921875 43.164062 60.226562 47.648438 57.171875 C 52.15625 60.226562 57.558594 61.921875 62.917969 61.921875 C 64.011719 61.921875 65.085938 61.855469 66.179688 61.722656 L 63.027344 85.316406 L 63.027344 85.335938 C 62.632812 88.832031 60.820312 92.066406 58.0625 94.21875 L 47.625 102.421875 Z M 37.210938 94.21875 " fill-opacity="1" fill-rule="nonzero"/><path fill="#23b564" d="M 37.210938 94.21875 C 34.628906 92.199219 32.878906 89.207031 32.355469 85.953125 C 32.945312 85.976562 33.535156 85.996094 34.128906 85.996094 C 40.144531 85.996094 46.074219 84.347656 51.257812 81.246094 C 56.464844 78.125 60.730469 73.664062 63.597656 68.296875 L 65.871094 64.074219 L 63.050781 85.316406 L 63.050781 85.335938 C 62.65625 88.832031 60.839844 92.066406 58.082031 94.21875 L 47.648438 102.421875 Z M 37.210938 94.21875 " fill-opacity="1" fill-rule="nonzero"/><path fill="#ffffff" d="M 53.269531 65.945312 C 51.804688 64.429688 49.8125 63.59375 47.714844 63.570312 C 45.613281 63.546875 43.621094 64.363281 42.113281 65.835938 C 40.601562 67.308594 39.773438 69.308594 39.75 71.417969 L 39.683594 79.335938 L 41.980469 79.355469 L 42.046875 73.046875 L 42.070312 71.441406 C 42.089844 68.339844 44.628906 65.855469 47.691406 65.878906 C 50.777344 65.902344 53.25 68.453125 53.226562 71.53125 L 53.203125 73.136719 L 53.160156 77.136719 L 53.140625 79.445312 L 55.4375 79.46875 L 55.503906 71.550781 C 55.546875 69.464844 54.734375 67.460938 53.269531 65.945312 Z M 53.269531 65.945312 " fill-opacity="1" fill-rule="nonzero"/><path fill="#ffd138" d="M 55.765625 76.015625 L 39.445312 75.859375 C 38.066406 75.839844 36.949219 76.960938 36.949219 78.324219 L 37.082031 90.8125 C 37.101562 92 38.042969 92.945312 39.226562 92.945312 L 56.203125 93.097656 C 57.40625 93.097656 58.390625 92.132812 58.367188 90.921875 L 58.238281 78.523438 C 58.238281 77.160156 57.144531 76.015625 55.765625 76.015625 Z M 48.894531 88.613281 L 46.117188 88.589844 C 45.855469 88.589844 45.65625 88.328125 45.722656 88.0625 L 46.707031 84.917969 C 46.074219 84.589844 45.679688 83.886719 45.765625 83.117188 C 45.855469 82.28125 46.53125 81.601562 47.363281 81.511719 C 48.457031 81.402344 49.375 82.257812 49.355469 83.335938 C 49.355469 84.039062 48.9375 84.632812 48.371094 84.941406 L 49.289062 88.109375 C 49.355469 88.351562 49.15625 88.613281 48.894531 88.613281 Z M 48.894531 88.613281 " fill-opacity="1" fill-rule="nonzero"/><path fill="#23b363" d="M 74.339844 95.035156 C 74.339844 95.667969 74.277344 96.296875 74.15625 96.917969 C 74.03125 97.539062 73.847656 98.140625 73.609375 98.726562 C 73.367188 99.3125 73.070312 99.871094 72.71875 100.394531 C 72.371094 100.921875 71.972656 101.410156 71.527344 101.859375 C 71.078125 102.308594 70.59375 102.707031 70.070312 103.058594 C 69.546875 103.410156 68.992188 103.707031 68.410156 103.953125 C 67.828125 104.195312 67.226562 104.378906 66.609375 104.5 C 65.988281 104.625 65.363281 104.6875 64.734375 104.6875 C 64.105469 104.6875 63.480469 104.625 62.859375 104.5 C 62.242188 104.378906 61.640625 104.195312 61.058594 103.953125 C 60.476562 103.707031 59.921875 103.410156 59.398438 103.058594 C 58.875 102.707031 58.390625 102.308594 57.941406 101.859375 C 57.496094 101.410156 57.097656 100.921875 56.75 100.394531 C 56.398438 99.871094 56.101562 99.3125 55.859375 98.726562 C 55.621094 98.140625 55.4375 97.539062 55.316406 96.917969 C 55.191406 96.296875 55.128906 95.667969 55.128906 95.035156 C 55.128906 94.398438 55.191406 93.773438 55.316406 93.152344 C 55.4375 92.527344 55.621094 91.925781 55.859375 91.339844 C 56.101562 90.753906 56.398438 90.199219 56.75 89.671875 C 57.097656 89.144531 57.496094 88.65625 57.941406 88.207031 C 58.390625 87.761719 58.875 87.359375 59.398438 87.007812 C 59.921875 86.65625 60.476562 86.359375 61.058594 86.117188 C 61.640625 85.875 62.242188 85.691406 62.859375 85.566406 C 63.480469 85.445312 64.105469 85.382812 64.734375 85.382812 C 65.363281 85.382812 65.988281 85.445312 66.609375 85.566406 C 67.226562 85.691406 67.828125 85.875 68.410156 86.117188 C 68.992188 86.359375 69.546875 86.65625 70.070312 87.007812 C 70.59375 87.359375 71.078125 87.761719 71.527344 88.207031 C 71.972656 88.65625 72.371094 89.144531 72.71875 89.671875 C 73.070312 90.199219 73.367188 90.753906 73.609375 91.339844 C 73.847656 91.925781 74.03125 92.527344 74.15625 93.152344 C 74.277344 93.773438 74.339844 94.398438 74.339844 95.035156 Z M 74.339844 95.035156 " fill-opacity="1" fill-rule="nonzero"/><path fill="#ffffff" d="M 68.980469 91.492188 L 64.078125 96.417969 L 61.867188 94.199219 L 60.097656 95.957031 L 64.078125 99.960938 L 70.730469 93.253906 Z M 68.980469 91.492188 " fill-opacity="1" fill-rule="nonzero"/><g fill="#060606" fill-opacity="1"><g transform="translate(28.060646, 42.181767)"><g><path d="M -2.640625 -3.96875 L 1.03125 -1.625 L 0.5 -0.78125 L -2.484375 -2.6875 L -2.953125 -1.953125 L -3.640625 -2.390625 Z M -2.640625 -3.96875 "/></g></g></g><g fill="#060606" fill-opacity="1"><g transform="translate(30.413464, 38.5752)"><g><path d="M 1.359375 -1.609375 C 1.140625 -1.335938 0.867188 -1.140625 0.546875 -1.015625 C 0.222656 -0.898438 -0.113281 -0.882812 -0.46875 -0.96875 C -0.832031 -1.0625 -1.195312 -1.253906 -1.5625 -1.546875 C -1.9375 -1.835938 -2.207031 -2.144531 -2.375 -2.46875 C -2.550781 -2.800781 -2.617188 -3.132812 -2.578125 -3.46875 C -2.546875 -3.8125 -2.421875 -4.117188 -2.203125 -4.390625 C -1.972656 -4.679688 -1.703125 -4.882812 -1.390625 -5 C -1.078125 -5.113281 -0.738281 -5.128906 -0.375 -5.046875 C -0.0078125 -4.960938 0.359375 -4.773438 0.734375 -4.484375 C 1.097656 -4.191406 1.363281 -3.878906 1.53125 -3.546875 C 1.695312 -3.210938 1.765625 -2.878906 1.734375 -2.546875 C 1.710938 -2.210938 1.585938 -1.898438 1.359375 -1.609375 Z M 0.6875 -2.140625 C 0.851562 -2.359375 0.890625 -2.597656 0.796875 -2.859375 C 0.710938 -3.117188 0.484375 -3.394531 0.109375 -3.6875 C -0.273438 -3.976562 -0.601562 -4.132812 -0.875 -4.15625 C -1.144531 -4.175781 -1.363281 -4.078125 -1.53125 -3.859375 C -1.6875 -3.660156 -1.722656 -3.429688 -1.640625 -3.171875 C -1.554688 -2.910156 -1.320312 -2.632812 -0.9375 -2.34375 C -0.5625 -2.050781 -0.238281 -1.894531 0.03125 -1.875 C 0.3125 -1.851562 0.53125 -1.941406 0.6875 -2.140625 Z M 0.6875 -2.140625 "/></g></g></g><g fill="#060606" fill-opacity="1"><g transform="translate(34.226492, 33.854503)"><g><path d="M 1.53125 -1.46875 C 1.289062 -1.207031 1.003906 -1.035156 0.671875 -0.953125 C 0.335938 -0.878906 -0.00390625 -0.898438 -0.359375 -1.015625 C -0.710938 -1.140625 -1.054688 -1.367188 -1.390625 -1.703125 C -1.722656 -2.023438 -1.957031 -2.363281 -2.09375 -2.71875 C -2.226562 -3.070312 -2.253906 -3.410156 -2.171875 -3.734375 C -2.097656 -4.054688 -1.941406 -4.347656 -1.703125 -4.609375 C -1.441406 -4.867188 -1.148438 -5.035156 -0.828125 -5.109375 C -0.503906 -5.191406 -0.164062 -5.171875 0.1875 -5.046875 C 0.539062 -4.921875 0.882812 -4.695312 1.21875 -4.375 C 1.550781 -4.039062 1.785156 -3.695312 1.921875 -3.34375 C 2.054688 -3 2.085938 -2.664062 2.015625 -2.34375 C 1.953125 -2.019531 1.789062 -1.726562 1.53125 -1.46875 Z M 0.90625 -2.0625 C 1.101562 -2.25 1.171875 -2.476562 1.109375 -2.75 C 1.054688 -3.019531 0.859375 -3.320312 0.515625 -3.65625 C 0.171875 -3.988281 -0.128906 -4.175781 -0.390625 -4.21875 C -0.660156 -4.269531 -0.894531 -4.203125 -1.09375 -4.015625 C -1.269531 -3.828125 -1.328125 -3.597656 -1.265625 -3.328125 C -1.210938 -3.066406 -1.015625 -2.769531 -0.671875 -2.4375 C -0.328125 -2.101562 -0.0234375 -1.910156 0.234375 -1.859375 C 0.503906 -1.804688 0.726562 -1.875 0.90625 -2.0625 Z M 0.90625 -2.0625 "/></g></g></g><g fill="#060606" fill-opacity="1"><g transform="translate(38.50884, 29.576881)"><g><path d="M -0.28125 -2.34375 C -0.53125 -2.144531 -0.796875 -2.066406 -1.078125 -2.109375 C -1.367188 -2.160156 -1.628906 -2.328125 -1.859375 -2.609375 C -2.097656 -2.898438 -2.207031 -3.191406 -2.1875 -3.484375 C -2.164062 -3.773438 -2.03125 -4.019531 -1.78125 -4.21875 C -1.519531 -4.414062 -1.25 -4.492188 -0.96875 -4.453125 C -0.6875 -4.410156 -0.425781 -4.242188 -0.1875 -3.953125 C 0.0390625 -3.671875 0.144531 -3.378906 0.125 -3.078125 C 0.113281 -2.785156 -0.0195312 -2.539062 -0.28125 -2.34375 Z M 0.296875 -5.8125 L 0.875 -6.28125 L 1.25 -1 L 0.6875 -0.546875 Z M -0.609375 -2.75 C -0.492188 -2.84375 -0.441406 -2.957031 -0.453125 -3.09375 C -0.460938 -3.238281 -0.535156 -3.394531 -0.671875 -3.5625 C -0.816406 -3.738281 -0.957031 -3.847656 -1.09375 -3.890625 C -1.226562 -3.941406 -1.351562 -3.921875 -1.46875 -3.828125 C -1.570312 -3.742188 -1.617188 -3.628906 -1.609375 -3.484375 C -1.597656 -3.335938 -1.519531 -3.175781 -1.375 -3 C -1.238281 -2.832031 -1.101562 -2.726562 -0.96875 -2.6875 C -0.832031 -2.644531 -0.710938 -2.664062 -0.609375 -2.75 Z M 3.328125 -2.609375 C 3.160156 -2.472656 2.976562 -2.390625 2.78125 -2.359375 C 2.59375 -2.328125 2.40625 -2.359375 2.21875 -2.453125 C 2.039062 -2.546875 1.878906 -2.6875 1.734375 -2.875 C 1.578125 -3.0625 1.476562 -3.25 1.4375 -3.4375 C 1.394531 -3.632812 1.40625 -3.820312 1.46875 -4 C 1.539062 -4.1875 1.660156 -4.347656 1.828125 -4.484375 C 2.066406 -4.671875 2.332031 -4.742188 2.625 -4.703125 C 2.925781 -4.660156 3.191406 -4.5 3.421875 -4.21875 C 3.648438 -3.925781 3.75 -3.628906 3.71875 -3.328125 C 3.695312 -3.035156 3.566406 -2.796875 3.328125 -2.609375 Z M 3 -3 C 3.101562 -3.082031 3.148438 -3.195312 3.140625 -3.34375 C 3.140625 -3.488281 3.066406 -3.648438 2.921875 -3.828125 C 2.785156 -3.992188 2.644531 -4.097656 2.5 -4.140625 C 2.363281 -4.179688 2.242188 -4.160156 2.140625 -4.078125 C 2.035156 -3.992188 1.984375 -3.878906 1.984375 -3.734375 C 1.992188 -3.597656 2.070312 -3.441406 2.21875 -3.265625 C 2.363281 -3.085938 2.503906 -2.976562 2.640625 -2.9375 C 2.773438 -2.894531 2.894531 -2.914062 3 -3 Z M 3 -3 "/></g></g></g><g fill="#060606" fill-opacity="1"><g transform="translate(44.336646, 25.151447)"><g/></g></g><g fill="#060606" fill-opacity="1"><g transform="translate(47.410867, 23.201601)"><g><path d="M 1.75 -0.859375 C 1.445312 -0.691406 1.132812 -0.570312 0.8125 -0.5 C 0.488281 -0.425781 0.203125 -0.414062 -0.046875 -0.46875 L -0.109375 -1.28125 C 0.117188 -1.257812 0.367188 -1.269531 0.640625 -1.3125 C 0.910156 -1.363281 1.15625 -1.453125 1.375 -1.578125 C 1.632812 -1.710938 1.800781 -1.847656 1.875 -1.984375 C 1.957031 -2.117188 1.96875 -2.25 1.90625 -2.375 C 1.851562 -2.46875 1.773438 -2.523438 1.671875 -2.546875 C 1.578125 -2.566406 1.460938 -2.5625 1.328125 -2.53125 C 1.191406 -2.507812 1.019531 -2.476562 0.8125 -2.4375 C 0.488281 -2.34375 0.210938 -2.28125 -0.015625 -2.25 C -0.242188 -2.226562 -0.460938 -2.253906 -0.671875 -2.328125 C -0.890625 -2.410156 -1.066406 -2.582031 -1.203125 -2.84375 C -1.316406 -3.0625 -1.363281 -3.296875 -1.34375 -3.546875 C -1.320312 -3.796875 -1.21875 -4.035156 -1.03125 -4.265625 C -0.84375 -4.503906 -0.578125 -4.71875 -0.234375 -4.90625 C 0.015625 -5.03125 0.269531 -5.125 0.53125 -5.1875 C 0.800781 -5.25 1.054688 -5.273438 1.296875 -5.265625 L 1.375 -4.453125 C 0.914062 -4.460938 0.503906 -4.375 0.140625 -4.1875 C -0.0976562 -4.050781 -0.253906 -3.910156 -0.328125 -3.765625 C -0.410156 -3.628906 -0.414062 -3.492188 -0.34375 -3.359375 C -0.269531 -3.222656 -0.148438 -3.160156 0.015625 -3.171875 C 0.179688 -3.179688 0.425781 -3.234375 0.75 -3.328125 C 1.082031 -3.410156 1.359375 -3.460938 1.578125 -3.484375 C 1.796875 -3.503906 2.007812 -3.476562 2.21875 -3.40625 C 2.4375 -3.332031 2.617188 -3.164062 2.765625 -2.90625 C 2.878906 -2.6875 2.925781 -2.453125 2.90625 -2.203125 C 2.882812 -1.960938 2.773438 -1.722656 2.578125 -1.484375 C 2.378906 -1.242188 2.101562 -1.035156 1.75 -0.859375 Z M 1.75 -0.859375 "/></g></g></g><g fill="#060606" fill-opacity="1"><g transform="translate(52.594195, 20.560809)"><g><path d="M 3.3125 -2.1875 L 3.609375 -1.4375 L 0.484375 -0.1875 L -1.125 -4.234375 L 1.9375 -5.453125 L 2.234375 -4.703125 L 0.09375 -3.859375 L 0.4375 -2.984375 L 2.328125 -3.734375 L 2.625 -3.015625 L 0.734375 -2.265625 L 1.109375 -1.3125 Z M 3.3125 -2.1875 "/></g></g></g><g fill="#060606" fill-opacity="1"><g transform="translate(58.216257, 18.423037)"><g><path d="M 2.53125 -0.609375 C 2.101562 -0.484375 1.691406 -0.46875 1.296875 -0.5625 C 0.898438 -0.65625 0.554688 -0.84375 0.265625 -1.125 C -0.0234375 -1.40625 -0.226562 -1.753906 -0.34375 -2.171875 C -0.445312 -2.585938 -0.445312 -2.984375 -0.34375 -3.359375 C -0.238281 -3.742188 -0.0351562 -4.078125 0.265625 -4.359375 C 0.566406 -4.640625 0.929688 -4.84375 1.359375 -4.96875 C 1.722656 -5.0625 2.066406 -5.085938 2.390625 -5.046875 C 2.722656 -5.003906 3.019531 -4.890625 3.28125 -4.703125 L 2.84375 -3.9375 C 2.457031 -4.195312 2.050781 -4.269531 1.625 -4.15625 C 1.363281 -4.082031 1.144531 -3.957031 0.96875 -3.78125 C 0.800781 -3.613281 0.6875 -3.410156 0.625 -3.171875 C 0.570312 -2.941406 0.578125 -2.695312 0.640625 -2.4375 C 0.710938 -2.175781 0.832031 -1.957031 1 -1.78125 C 1.175781 -1.601562 1.378906 -1.484375 1.609375 -1.421875 C 1.847656 -1.367188 2.097656 -1.378906 2.359375 -1.453125 C 2.785156 -1.566406 3.097656 -1.828125 3.296875 -2.234375 L 4.0625 -1.828125 C 3.925781 -1.535156 3.726562 -1.28125 3.46875 -1.0625 C 3.207031 -0.851562 2.894531 -0.703125 2.53125 -0.609375 Z M 2.53125 -0.609375 "/></g></g></g><g fill="#060606" fill-opacity="1"><g transform="translate(64.409335, 16.844766)"><g><path d="M 2.4375 -0.28125 C 1.820312 -0.1875 1.316406 -0.28125 0.921875 -0.5625 C 0.535156 -0.851562 0.296875 -1.320312 0.203125 -1.96875 L -0.140625 -4.375 L 0.84375 -4.53125 L 1.1875 -2.15625 C 1.300781 -1.375 1.679688 -1.03125 2.328125 -1.125 C 2.640625 -1.164062 2.863281 -1.296875 3 -1.515625 C 3.132812 -1.734375 3.175781 -2.039062 3.125 -2.4375 L 2.78125 -4.8125 L 3.765625 -4.953125 L 4.109375 -2.546875 C 4.203125 -1.898438 4.101562 -1.378906 3.8125 -0.984375 C 3.519531 -0.597656 3.0625 -0.363281 2.4375 -0.28125 Z M 2.4375 -0.28125 "/></g></g></g><g fill="#060606" fill-opacity="1"><g transform="translate(71.087892, 15.991577)"><g><path d="M 3.296875 -0.078125 L 2.421875 -1.28125 L 2.375 -1.28125 L 1.5 -1.25 L 1.53125 -0.03125 L 0.515625 -0.015625 L 0.40625 -4.375 L 2.296875 -4.421875 C 2.679688 -4.429688 3.019531 -4.375 3.3125 -4.25 C 3.601562 -4.132812 3.828125 -3.957031 3.984375 -3.71875 C 4.140625 -3.488281 4.222656 -3.210938 4.234375 -2.890625 C 4.234375 -2.566406 4.160156 -2.285156 4.015625 -2.046875 C 3.867188 -1.804688 3.65625 -1.617188 3.375 -1.484375 L 4.375 -0.109375 Z M 3.21875 -2.859375 C 3.207031 -3.097656 3.117188 -3.28125 2.953125 -3.40625 C 2.796875 -3.539062 2.5625 -3.609375 2.25 -3.609375 L 1.4375 -3.578125 L 1.484375 -2.046875 L 2.296875 -2.078125 C 2.609375 -2.078125 2.835938 -2.144531 2.984375 -2.28125 C 3.140625 -2.425781 3.21875 -2.617188 3.21875 -2.859375 Z M 3.21875 -2.859375 "/></g></g></g><g fill="#060606" fill-opacity="1"><g transform="translate(77.500436, 15.950736)"><g><path d="M 3.953125 -0.46875 L 3.875 0.34375 L 0.515625 0.046875 L 0.90625 -4.296875 L 4.1875 -4 L 4.109375 -3.1875 L 1.828125 -3.390625 L 1.75 -2.453125 L 3.765625 -2.28125 L 3.6875 -1.515625 L 1.671875 -1.6875 L 1.59375 -0.671875 Z M 3.953125 -0.46875 "/></g></g></g><g fill="#060606" fill-opacity="1"><g transform="translate(83.515651, 16.627881)"><g/></g></g><g fill="#060606" fill-opacity="1"><g transform="translate(87.086779, 17.293477)"><g><path d="M 3.484375 -3.5625 C 3.859375 -3.457031 4.164062 -3.304688 4.40625 -3.109375 C 4.644531 -2.910156 4.804688 -2.671875 4.890625 -2.390625 C 4.972656 -2.117188 4.972656 -1.832031 4.890625 -1.53125 C 4.796875 -1.21875 4.644531 -0.960938 4.4375 -0.765625 C 4.226562 -0.578125 3.96875 -0.460938 3.65625 -0.421875 C 3.351562 -0.378906 3.015625 -0.410156 2.640625 -0.515625 L 1.796875 -0.75 L 1.46875 0.40625 L 0.5 0.140625 L 1.671875 -4.0625 Z M 2.8125 -1.328125 C 3.101562 -1.242188 3.335938 -1.242188 3.515625 -1.328125 C 3.703125 -1.410156 3.832031 -1.570312 3.90625 -1.8125 C 3.96875 -2.039062 3.941406 -2.238281 3.828125 -2.40625 C 3.710938 -2.582031 3.507812 -2.710938 3.21875 -2.796875 L 2.421875 -3.015625 L 2.015625 -1.546875 Z M 2.8125 -1.328125 "/></g></g></g><g fill="#060606" fill-opacity="1"><g transform="translate(93.212949, 19.098796)"><g><path d="M 3.5 0.40625 L 1.609375 -0.359375 L 0.90625 0.375 L -0.0625 -0.03125 L 3.40625 -3.3125 L 4.328125 -2.9375 L 4.484375 1.84375 L 3.5 1.4375 Z M 3.484375 -0.40625 L 3.484375 -2.21875 L 2.203125 -0.9375 Z M 3.484375 -0.40625 "/></g></g></g><g fill="#060606" fill-opacity="1"><g transform="translate(99.27324, 21.719299)"><g><path d="M 3.03125 -0.09375 L 2.28125 1.265625 L 1.40625 0.78125 L 2.15625 -0.578125 L 2.03125 -3.859375 L 2.96875 -3.328125 L 3.0625 -1.078125 L 5 -2.203125 L 5.875 -1.71875 Z M 3.03125 -0.09375 "/></g></g></g><g fill="#060606" fill-opacity="1"><g transform="translate(104.518794, 24.689944)"><g><path d="M 3.625 2.65625 L 5.171875 0.53125 L 2.859375 1.515625 L 2.5 1.25 L 2.703125 -1.1875 L 1.1875 0.875 L 0.421875 0.296875 L 3 -3.21875 L 3.671875 -2.71875 L 3.390625 0.421875 L 6.28125 -0.796875 L 6.953125 -0.3125 L 4.390625 3.21875 Z M 3.625 2.65625 "/></g></g></g><g fill="#060606" fill-opacity="1"><g transform="translate(110.680835, 29.411428)"><g><path d="M 3.390625 2.078125 L 2.828125 2.671875 L 0.375 0.359375 L 3.375 -2.8125 L 5.765625 -0.546875 L 5.203125 0.046875 L 3.53125 -1.53125 L 2.890625 -0.84375 L 4.375 0.546875 L 3.828125 1.109375 L 2.34375 -0.28125 L 1.65625 0.453125 Z M 3.390625 2.078125 "/></g></g></g><g fill="#060606" fill-opacity="1"><g transform="translate(114.988384, 33.599988)"><g><path d="M 6.234375 0.671875 L 2.890625 3.46875 L 2.359375 2.828125 L 3.015625 -0.53125 L 0.96875 1.171875 L 0.328125 0.390625 L 3.671875 -2.40625 L 4.21875 -1.75 L 3.5625 1.609375 L 5.59375 -0.09375 Z M 6.234375 0.671875 "/></g></g></g><g fill="#060606" fill-opacity="1"><g transform="translate(119.276251, 38.961437)"><g><path d="M 3.75 -0.75 L 2.984375 -1.90625 L 3.65625 -2.359375 L 5.734375 0.8125 L 5.0625 1.265625 L 4.296875 0.09375 L 1.328125 2.03125 L 0.78125 1.1875 Z M 3.75 -0.75 "/></g></g></g></svg>